<svg xmlns="http://www.w3.org/2000/svg" xml:space="preserve" width="208.75395" height="75.050934" viewBox="0 0 208.75395 75.050933"><defs><clipPath id="a" clipPathUnits="userSpaceOnUse"><path d="M0 841.89h595.28V0H0Z"/></clipPath></defs><g clip-path="url(#a)" transform="matrix(1.33333 0 0 -1.33333 -155.891 596.492)"><path d="M0 0c.075.079.142.167.202.258.107.004.206.021.305.037C.504.279.5.264.5.246l.013-1.975A6.24 6.24 0 0 1 0 0m14.822-21.195c.176.309.287.667.287 1.055l-.051 9.406c-.006 1.137-.907 2.053-2.01 2.049l-1.984-.012a1.95 1.95 0 0 1-1.139-.372c-.33.228-.717.361-1.144.36l-6.716-.038C1.328-8.752.696-9.171.348-9.782c-.351.603-.989 1.014-1.723 1.009l-1.99-.01a1.998 1.998 0 0 1-1.415-.61 1.883 1.883 0 0 1-.554.088s-.436-.001-.734-.004a1.929 1.929 0 0 1-.206.37c.284-.042.575-.068.874-.066 1.553.011 2.982.609 4.124 1.732A6.103 6.103 0 0 1 .525-3.677l.002-.944c.006-.966.265-1.747.771-2.324.024-.034.06-.068.087-.098.378-.38 1.052-.827 2.131-.823l8.564.048c1.055.006 1.723.454 2.095.83a.766.766 0 0 1 .057.057c.536.588.808 1.394.808 2.388L15.01.325c0 .141-.012.277-.039.412.021.132.039.27.033.412l-.033 6.774c-.003 1.134-.905 2.051-2.011 2.042l-1.989-.009c-.624-.003-1.156-.319-1.522-.779-.072-.002-.273-.002-.273-.002-1.109-.004-1.998-.931-1.995-2.066l.012-1.444c-.426-.003-.909-.003-1.382-.008l-.012 2.222c-.003 1.136-.906 2.053-2.014 2.046l-1.986-.009a1.997 1.997 0 0 1-1.654-.919c-.363.536-.935.904-1.618.901l-1.987-.014c-.966-.003-1.762-.706-1.952-1.638-.137.17-.281.33-.44.486-.01.007-.018.016-.027.023-1.064 1.002-2.376 1.53-3.791 1.522-1.455-.006-2.739-.532-3.809-1.563-1.138-1.136-1.725-2.595-1.71-4.251.009-1.632.599-3.074 1.725-4.174a5.54 5.54 0 0 1 2.245-1.345 6.973 6.973 0 0 1-.207-1.708c.006-1.786.659-3.357 1.877-4.547.293-.287.608-.538.943-.759l-1.375-.007a2.01 2.01 0 0 1-1.841-1.262l-.751-.005c-1.109-.007-2.002-.933-1.996-2.064l.009-2.006c.006-1.136.905-2.053 2.014-2.045h.378c-.13-.739-.285-1.247-.429-1.551-.255-.527-.477-.583-.569-.607-.906-.226-1.538-1.056-1.535-2.008l.015-2.218a2.095 2.095 0 0 1 .719-1.568 1.985 1.985 0 0 1 1.63-.448 6.574 6.574 0 0 1 3.126 1.506c.098.09.172.212.27.304.078-.077.138-.186.221-.261.945-.837 2.077-1.346 3.365-1.52.021-.004.042 0 .066 0v-.899c.013-1.133.911-2.05 2.017-2.042l1.99.01c1.103.003 1.996.931 1.987 2.066l-.006.566c.117-.59.344-1.096.704-1.495.018-.016.033-.035.057-.056.372-.386 1.049-.847 2.142-.841l9.631.056c1.106.004 1.997.93 1.991 2.064l-.009 2.003a2.103 2.103 0 0 1-.393 1.203" style="fill:#fff;fill-opacity:1;fill-rule:nonzero;stroke:none" transform="translate(258.26 420.943)"/><path d="M0 0c.846-.823 1.277-1.849 1.286-3.071C1.292-4.305.873-5.334.033-6.149c-.782-.771-1.699-1.157-2.751-1.162-1.067-.004-1.983.37-2.765 1.132-.827.806-1.241 1.831-1.247 3.065-.008 1.234.399 2.265 1.22 3.086.768.762 1.68 1.146 2.75 1.155C-1.714 1.131-.797.757 0 0m-4.107-1.552c-.408-.42-.605-.939-.603-1.551 0-.613.204-1.128.618-1.543.397-.408.871-.608 1.392-.605.536.003.989.21 1.361.619.408.421.608.938.608 1.549-.009.614-.215 1.129-.62 1.548-.393.397-.848.593-1.37.59a1.904 1.904 0 0 1-1.386-.607M1.233 6.5l1.6.008.006-1.866-1.595-.008.006-.825 1.595.007.012-1.87-1.598-.009.006-.913-1.987-.013-.033 6.458 1.985.012Zm-9.312-1.115a1.747 1.747 0 0 1-.494-1.261c.003-.483.174-.9.509-1.237a1.5 1.5 0 0 1 1.124-.478c.423.003.783.165 1.096.49.322.342.48.762.477 1.243a1.774 1.774 0 0 1-.489 1.252c-.316.311-.682.466-1.102.462a1.54 1.54 0 0 1-1.121-.471m3.546 1.495c.745-.729 1.114-1.637 1.126-2.728.009-1.083-.36-1.986-1.099-2.712C-5.207.751-6.011.408-6.922.402c-.946-.003-1.762.331-2.466 1.014-.733.715-1.102 1.615-1.105 2.697-.009 1.106.352 2.018 1.072 2.739.698.671 1.517 1.006 2.457 1.008.914.006 1.727-.321 2.431-.98" style="fill:#ed1c24;fill-opacity:1;fill-rule:nonzero;stroke:none" transform="translate(255.566 421.304)"/><path d="m0 0 10.505.055.026-4.865c0-.449-.089-.773-.262-.966-.161-.159-.399-.243-.707-.246l-8.561-.046c-.33-.002-.569.081-.729.238-.164.194-.248.517-.251.962Zm8.535-1.946-6.578-.033.012-2.09 6.577.037zm-.033 4.083-1.796-.008-.015 1.87 1.802.009-.009.994-1.796-.01-.012 1.871 1.802.011-.003.77 1.988.01.03-6.773L8.508.87Zm-9.2 5.465 1.989.012.021-4.279 4.726.025.012-2.007-5.76-.031c-.323 0-.566.077-.722.242-.152.175-.239.491-.242.94z" style="fill:#ed1c24;fill-opacity:1;fill-rule:nonzero;stroke:none" transform="translate(260.768 421.2)"/><path d="m0 0 1.99.009.069-13.879-1.984-.009Zm-4.545-2.542c.084-1.998.37-3.498.871-4.515.444-.931 1.082-1.482 1.918-1.663l.009-2.234c-.902.122-1.665.467-2.303 1.032-.646.577-1.143 1.353-1.508 2.338-.345-.968-.876-1.746-1.582-2.354a4.57 4.57 0 0 0-2.188-1.06l-.015 2.221c.827.207 1.459.78 1.905 1.714.48 1.032.768 2.533.834 4.509h-.09l-2.505-.013-.015 2.007 2.601.012-.003 1.25 2.068.011.003-1.249 2.576.014.009-2.008z" style="fill:#ed1c24;fill-opacity:1;fill-rule:nonzero;stroke:none" transform="translate(254.904 410.106)"/><path d="m0 0 1.99.012.012-2.851 8.618.048.006-2.002-9.628-.054c-.321 0-.566.078-.722.238-.168.188-.255.511-.255.964zm8.475 8.867 1.984.009.051-9.406-1.988-.014ZM3.974 6.082c.045.148.078.293.102.444.024.149.036.3.036.465l-4.619-.027-.012 1.854 6.723.034.003-.964c.005-1.252-.208-2.335-.64-3.235A5.323 5.323 0 0 0 3.88 2.652c-.62-.43-1.36-.757-2.232-.977a10.405 10.405 0 0 0-2.316-.321l-.003 2.043c.808.037 1.529.155 2.152.353.563.18 1.043.431 1.438.744l-3.417-.017-.006 1.581Z" style="fill:#ed1c24;fill-opacity:1;fill-rule:nonzero;stroke:none" transform="translate(260.855 401.324)"/><path d="M0 0c-.024.043-.066.107-.104.174L-.2 19.634c-.012 2.091-1.669 3.769-3.707 3.76l-20.994-.11c-2.032-.014-3.68-1.713-3.665-3.804l.136-26.036c.009-2.092 1.669-3.776 3.702-3.765l20.994.115c2.038.01 3.677 1.713 3.665 3.806l-.015 3.527c.06.03.108.087.108.164L.012-.088C.012-.061.012-.03 0 0" style="fill:#fff;fill-opacity:1;fill-rule:nonzero;stroke:none" transform="translate(148.876 404.885)"/><path d="M0 0c-.015.008-.021.013-.036.018-.012.007-.024.009-.036.015A.526.526 0 0 1 0 0" style="fill:#fff;fill-opacity:1;fill-rule:nonzero;stroke:none" transform="translate(169.044 392.317)"/><path d="M0 0c0-.083-.006-.167-.009-.252.003.1.003.169.009.252m56.051 18.493c-.683 1.424-1.893 2.406-3.416 2.767-1.1.265-2.259.043-3.269-.623-.939-.62-1.796-1.72-2.569-3.131-.506.777-1.376 1.552-2.864 2.04-3.905 1.284-12.712.28-16.266-2.845.094.384.145.744.148 1.102v.156c-.024 4.383-2.715 6.051-5.045 6.135-1.779.034-2.861-1.326-3.215-1.772-1.174-1.475-2.64-4.345-3.892-7.037-2.17 2.042-4.974 2.917-8.249 2.549-1.738-.222-3.153-.624-4.312-1.127a5.745 5.745 0 0 1-.372 2.267c-.393.98-1.258 2.293-3.174 2.962-4.011 1.402-7.134-3.338-10.76-10.735-.018.085-.024.172-.045.257-.021.084-.048.166-.075.249-1.174 3.502-4.264 4.259-6.217 4.442-2.198 3.029-5.092 4.142-7.533 2.744-2.252-1.293-2.384-3.641-2.378-4.982l.003-.334c-.497-.261-1.004-.524-1.004-.524-2.232-1.106-4.161-2.058-4.596-4.266a3.94 3.94 0 0 1-.068-.763c.003-.741.215-1.727 1.064-2.709.17-.198.358-.37.575-.517 1.437-.982 2.846-1.338 4.119-1.402-1.144-1.451-2.465-3.025-3.463-4.214-1.826-2.17-3.546-4.219-4.55-5.711a1.314 1.314 0 0 1-.099-.156c-1.013-1.722-1.353-3.105-1.347-4.194.006-1.37.566-2.275 1.049-2.802.632-.691 2.468-2.113 5.749-.35.021.009.036.019.057.031 1.197.677 2.958 1.946 5.083 4.241 1.105-.893 2.45-1.823 3.817-2.195a9.956 9.956 0 0 1-.215-1.988 6.338 6.338 0 0 1 .389-2.211c.515-1.359 1.513-2.369 2.883-2.928 4.039-1.695 7.006 3.894 8.783 7.243C-7.105-7.833-4.78-2.525-2.535 2.611c.681 1.554 1.343 3.06 1.981 4.495.065-.067.137-.134.206-.19 1.173-.987 2.544-1.1 3.84-.992C1.824 4.394.117 2.523 0 .021-.129-1.07.102-2.01.695-2.781c.63-.817 1.546-1.298 2.73-1.428a5.866 5.866 0 0 1 1.175.011C-6.142-11.441-6.226-13.602-6.275-14.902c-.081-2.048.878-3.813 2.559-4.715 2.196-1.175 5.197-.639 7.825 1.404.998.694 2.068 1.552 3.206 2.47 1.043.845 2.567 2.071 3.701 2.817 1.082-1.557 3.827-5.371 7.767-2.963.443.274.811.666 1.063 1.137.468.872.656 1.721.647 2.535-.006 1.714-.862 3.246-1.74 4.438a74.966 74.966 0 0 1 3.134 2.569c1.562 1.354 3.062 2.751 4.042 4.166a3.392 3.392 0 0 1 1.609-.687c-1.138-4.568-1.087-10.546-.051-12.683 2.137-4.415 11.043-5.106 15.774-3.403 4.842 1.746 5.625 5.875 6.452 10.244l.755 3.659c.426 1.776.405 3.184.159 4.291.689.924 1.174 1.894 1.472 2.478.003.003.08.171.08.176l.912 1.838c.742 1.459 1.657 3.271 2.378 4.907.236.533 2.236 5.289.582 8.717" style="fill:#fff;fill-opacity:1;fill-rule:nonzero;stroke:none" transform="translate(187.014 411.416)"/><path d="M0 0a.172.172 0 0 0-.021-.012C-.06-.039-.102-.076-.145-.103-.096-.07-.048-.036 0 0" style="fill:#fff;fill-opacity:1;fill-rule:nonzero;stroke:none" transform="translate(191.144 393.214)"/><path d="M0 0c-.875 2.606-3.791 2.445-5.067 2.495-1.057 1.927-2.964 3.913-4.486 3.04-1.523-.875-.399-3.28-1.151-4.68-3.278-1.878-6.425-2.673-5.055-4.269 3.92-2.672 7.344 1.452 7.815-.583.476-2.066-8.312-11.103-10.913-14.968-1.607-2.734-1.127-4.573 1.579-3.118 1.348.763 3.529 2.452 6.148 5.755.726-.363 4.592-4.528 5.883-3.226 1.289 1.294-.918 3.439-2.605 7.014C-5.67-9.647.719-2.941 0 0" style="fill:#231f20;fill-opacity:1;fill-rule:nonzero;stroke:none" transform="translate(172.915 422.138)"/><path d="M0 0c-.843.787-4.648 1.532-4.282 3.841.375 2.31 5.813.717 6.696 2.36 1.305 2.048 7.065 16.69 10.273 15.564 3.218-1.121.509-5.482.306-6.048C7.917 5.08.405-14.995-2.825-13.603-6.32-12.208-2.67-5.773 0 0" style="fill:#231f20;fill-opacity:1;fill-rule:nonzero;stroke:none" transform="translate(172.934 408.73)"/><path d="M0 0c1.433-2.253 7.432 1.646 7.702-.031.269-1.68-10.914-8.364-9.38-10.621 1.139-1.424 5.487 2.369 6.5 2.238 1.009-.132 2.604-3.555 4.767-1.352 1.142 1.425-1.352 2.58-1.219 4.14.423 2.712 7.012 5.344 7.018 8.636C15.286 6.841-2.772 4.278 0 0" style="fill:#231f20;fill-opacity:1;fill-rule:nonzero;stroke:none" transform="translate(216.18 423.626)"/><path d="M0 0c-2.317.137-5.05.577-4.532 1.849 1.079 1.462 8.049 1.371 8.394.122C4.212.718 2.304-.14 0 0m5.457 11.166c-.009-2.59-1.145-4.469-2.533-4.998-1.4-.534-3.484-.262-6.181.103 1.055 3.395-.247 6.563-1.547 6.703-3.39.365-4.21-12.316-3.081-14.64C-6.761-3.992.114-5.078 4.285-3.567c4.179 1.504 3.844 5.523 5.339 11.77 1.492 6.253-4.167 5.551-4.167 2.963" style="fill:#231f20;fill-opacity:1;fill-rule:nonzero;stroke:none" transform="translate(225.011 400.013)"/><path d="M0 0c.384.91 2.158 4.191 3.305 6.784.846 1.926 2.005 6.629-.832 7.308-2.827.675-5.611-10.118-6.684-15.535 0 0 .993-4.961 4.211 1.443" style="fill:#231f20;fill-opacity:1;fill-rule:nonzero;stroke:none" transform="translate(236.508 415.65)"/><path d="M0 0c-1.461 2.418-3.737 4.083-7.459 3.665-4.655-.594-6.291-2.621-6.72-4.315.143-3.744 6.023.497 7.701-2.083 1.409-2.433-5.786-5.228-5.783-8.691-.034-.345-.192-.85.812-.961 1.403-.134 2.041.64 3.069 1.395 1.024.76 4.616 3.533 6.487 5.512 0 0 3.368 3.064 1.893 5.478" style="fill:#231f20;fill-opacity:1;fill-rule:nonzero;stroke:none" transform="translate(202.203 422.588)"/><path d="M0 0c.943-1.731-8.531-8.834-9.565-9.445.712-1.195 4.032-3.797 2.807-6.089-2.589-1.584-4.053 3.404-5.549 3.981-2.187-.327-6.515-4.515-9.371-6.48-2.856-2.224-5.791-1.732-5.696.786C-27.254-14.039-1.57 2.162 0 0" style="fill:#231f20;fill-opacity:1;fill-rule:nonzero;stroke:none" transform="translate(211.047 413.65)"/><path d="M0 0c.281.238 4.33.222 5.013 2.296.677 2.072-4.208.582-3.636 2.069.399 2.078 2.76 6.045 2.766 7.288.015 1.763-.59 3.201-2.208 3.261C.036 14.949-8.257-5.17-7.899-6.817c0 0 .014-1.413 1.429-1.037C-3.537-6.446-1.203-.985 0 0" style="fill:#231f20;fill-opacity:1;fill-rule:nonzero;stroke:none" transform="translate(207.748 417.584)"/><path d="M0 0c.012-1.459-1.135-2.655-2.559-2.664-1.429-.007-2.593 1.175-2.599 2.64-.009 1.466 1.139 2.658 2.566 2.664C-1.162 2.646-.003 1.47 0 0" style="fill:#fff;fill-opacity:1;fill-rule:nonzero;stroke:none" transform="translate(239.196 397.316)"/><path d="M0 0c.006-.763-.593-1.386-1.343-1.39-.743-.005-1.351.614-1.357 1.377 0 .767.599 1.393 1.345 1.393C-.61 1.387-.003.769 0 0" style="fill:#fff;fill-opacity:1;fill-rule:nonzero;stroke:none" transform="translate(237.968 397.312)"/><path d="M0 0c-.003.73.569 1.33 1.282 1.335.713.005 1.292-.592 1.295-1.322.006-.729-.576-1.323-1.283-1.327C.587-1.319.003-.73 0 0m-.123-.002C-.12-.8.515-1.446 1.294-1.441c.78.006 1.409.66 1.409 1.456-.009.802-.644 1.449-1.421 1.445C.5 1.455-.127.8-.123-.002" style="fill:#231f20;fill-opacity:1;fill-rule:nonzero;stroke:none" transform="translate(235.331 397.298)"/><path d="m0 0 .462.002c.13.002.228.02.294.067.081.051.128.138.128.269-.005.1-.029.179-.086.236-.054.06-.138.09-.247.09L-.003.658Zm-.221-.89L-.23.833l.814.005C.753.84.879.797.968.718a.412.412 0 0 0 .147-.333.554.554 0 0 0-.078-.299.322.322 0 0 0-.227-.159L.753-.081.81-.097c.158-.028.254-.162.278-.405.006-.111.015-.221.027-.337l.002-.033c0-.04-.011-.067-.035-.085a.153.153 0 0 0-.09-.025c-.066 0-.102.067-.113.206a3.21 3.21 0 0 1-.045.394C.792-.25.693-.179.539-.179L0-.184v-.704a.071.071 0 0 0-.03-.06.145.145 0 0 0-.084-.031.13.13 0 0 0-.08.026.085.085 0 0 0-.027.063" style="fill:#231f20;fill-opacity:1;fill-rule:nonzero;stroke:none" transform="translate(236.217 397.328)"/><path d="M0 0c-3.898-.024-7.063-3.301-7.039-7.308l.135-26.038c.018-4.008 3.215-7.249 7.113-7.229l20.991.117c3.906.017 7.064 3.298 7.042 7.309 0 0-.009 2.04-.015 2.895.058.259.118.52.115.793l-.018 3.509s-.063.123-.121.225c-.009 1.563-.092 18.608-.092 18.608C28.09-3.112 24.895.134 20.994.114z" style="fill:#fff;fill-opacity:1;fill-rule:nonzero;stroke:none" transform="translate(123.957 431.656)"/><path d="M0 0c.009-2.008-1.567-3.644-3.516-3.655l-20.133-.107C-25.6-3.773-27.201-2.157-27.21-.15l-.128 25.026c-.009 2.009 1.567 3.648 3.517 3.659l20.141.112c1.95.009 3.538-1.614 3.55-3.624z" style="fill:#fff;fill-opacity:1;fill-rule:nonzero;stroke:none" transform="translate(147.982 398.326)"/><path d="M0 0c.206-.213.287-.625.239-1.215C-.024-3.313-.566-3.786-.807-3.92c-.251-.136-1.497-1.05-2.633-.169l.012-.021c-.413.291-1.202.458-1.528.222-.306-.157-.542-.186-.65-.072-.142.15-.109.641.182 1.156C-4.27-.831-2.22-.078-.599.206-.363.197-.152.148 0 0m13.047-21.249-20.14-.108c-1.597-.007-2.91 1.317-2.919 2.967l-.126 25.021c-.009 1.647 1.288 2.99 2.885 2.999l20.138.109c1.598.012 2.909-1.319 2.912-2.965l.093-17.807c-1.557 1.997-4.938 5.606-5.111 5.796C9.84-4.181 8.552-3.018 7.42-1.992c-.924.838-1.963 1.77-2.059 2.038.054.352.572.544 1.606.592.513.061.871.261 1.079.577.155.234.194.497.188.683 0 .174-.03.287-.03.295-.128.597-.542.756-.902.899-.32.123-.596.231-.734.613v.029c0 .083.063.37.713 1.164.166.199.225.469.222.696 0 .174-.035.332-.092.418-.54.653-1.606.093-2.467-.356-.296-.153-.701-.369-.805-.35-.456.077-.756.437-.864 1.001-.081.423.105.642.354.943.171.207.368.439.468.77.194.627 0 1.377-.103 1.519a.3.3 0 0 1-.114.082c-.566.14-1.687-.97-3.859-3.851L-.3 5.355s-.015-.015-.027-.021c.027.182.03.337.03.486C-.3 6.976-.953 7.113-.983 7.113c-.977.044-3.081-2.723-3.422-4.481a2.292 2.292 0 0 1-.015-.248c.003-.818.438-1.646.776-2.175C-4.774-.295-5.382-.902-6.1-1.879c-.67-1.025-.879-1.776-.873-2.313 0-.613.285-.942.471-1.105a.16.16 0 0 1 .221.006c.306.276 1.421.628 2.205.402.405-.118.501-.698.503-1.148 0-.188-.014-.349-.026-.45-.614-.17-3.461-1.079-3.449-3.976.048-1.911 1.064-2.841 1.6-3.341.111-.105.242-.224.26-.268.006-.005.006-.018.006-.029 0-.104-.095-.378-.17-.587-.161-.455-.387-1.067-.378-1.739v-.201c.009-.866.172-1.948 1.358-2.625 1.318-.531 2.104.075 2.569.436.11.088.248.198.298.204.208.004.25-.043.25-.043.021-.018.012-.11.006-.168-.006-.215-.024-.579.409-.829.009 0 .021-.016.033-.018.708-.253 1.367.17 1.844.476.185.12.405.253.497.256.147 0 .222-.067.32-.149.124-.107.262-.237.513-.237 1.891.106 2.461 1.612 2.487 1.675a.204.204 0 0 1 .006.087c-.03.223-.119.394-.267.488a.39.39 0 0 1-.344.045.145.145 0 0 1-.098-.096c-.214-.493-.411-.712-.876-.588-.185.054-.191.104-.203.314-.009.219-.024.546-.414.814-.432.29-.888-.094-1.289-.435-.32-.269-.656-.545-.907-.464-.247.091-.247.148-.235.331.006.186.021.474-.299.755-.647.552-1.702-.332-1.746-.372-.873-.726-1.562-.876-2.023-.432-.674.647-.054 1.655-.024 1.694.394.854.817 1.505 1.18 2.071.734 1.126 1.357 2.098 1.348 3.903-.003.941-.245 1.869-.564 2.685-.11.482-.239 1.561.894 1.765.221.063.473.125.701.253C1.827-3.349 1.297-.223 1.276-.087c-.033.256.03.408.252.451.159-.002.254-.011.26-.011 1.412.009 5.4-3.683 8.738-7.344 3.372-3.424 4.792-5.643 5.379-6.793l.021-4.467c.012-1.646-1.285-2.989-2.879-2.998m-.168 32.297-20.14-.108c-2.298-.012-4.156-1.946-4.147-4.312l.129-25.024c.012-2.369 1.89-4.274 4.195-4.264l20.134.109c2.298.011 4.159 1.948 4.144 4.308l-.125 25.026c-.012 2.364-1.895 4.279-4.19 4.265" style="fill:#ed1c24;fill-opacity:1;fill-rule:nonzero;stroke:none" transform="translate(131.42 416.573)"/><path d="M0 0c.348.002.623.472.623 1.046-.006.575-.284 1.043-.632 1.04-.345 0-.614-.469-.611-1.048C-.614.463-.338-.003 0 0" style="fill:#ed1c24;fill-opacity:1;fill-rule:nonzero;stroke:none" transform="translate(129.933 413.761)"/><path d="M0 0c-.768-.315-1.874-.701-2.604-.719-.447 0-.608.106-.456.65l.677 2.405c.078.288-.054.401-.363.507-.183.062-.347.351.273.472.254.053.858-.008 1.258-.079.136-.026.351-.042.531.071.3.175.696.175.998.131.464-.079.267-.666-.269-.717-.339-.035-1.149-.035-1.388-.035L-2.005.332c-.054-.192.033-.237.182-.228.432.026 1.269.22 1.963.42l.824 2.993c.091.324-.018.498-.353.681-.264.15-.172.456.335.438.157 0 .863-.104 1.052-.202.27-.121.012-.392-.108-.821l-.623-2.275h.743l.708 2.572c.092.333-.015.5-.351.693-.265.149-.171.445.339.437.152-.009.859-.106 1.049-.201.272-.124.015-.395-.106-.824L2.247-1.084c-.363-1.322-.789-2.049-1.141-2.065-.253-.018-.19.532.116 1.617L1.848.752h-.736L.686-.796C.32-2.125-.103-2.836-.459-2.861c-.249-.009-.183.551.117 1.618z" style="fill:#fff;fill-opacity:1;fill-rule:nonzero;stroke:none" transform="translate(172.173 440.87)"/><path d="M0 0c-.39 0-.759.127-1.049.358a1.913 1.913 0 0 0-.384-.064 1.676 1.676 0 0 0-1.433.609c-.355.442-.419.956-.337 1.566a4.467 4.467 0 0 0-.456-.036h-.003c-.774 0-1.334.233-1.702.692-.569.707-.342 1.522-.267 1.791l.479 1.705a1.574 1.574 0 0 0-.378 1.134c.042.623.501 1.37 1.654 1.597.435.09 1.215.022 1.624-.038l.139.053a.27.27 0 0 0 .018.069c.218.77.97 1.267 1.908 1.267.018 0 .081-.004.099-.001.045 0 .166-.009.324-.027.369.289.897.459 1.46.429.012-.001 1.112-.077 1.69-.373.346-.179 1.342-.84.715-2.309-.023-.052-.053-.11-.068-.177l-1.4-5.092C2.241 1.724 1.597.076.093.003A1.444 1.444 0 0 0 0 0" style="fill:#fff;fill-opacity:1;fill-rule:nonzero;stroke:none" transform="translate(173.267 436.262)"/><path d="m0 0-.208-.769c-.328-1.164-.787-1.716-1.075-1.732-.242-.018-.23.376.024 1.32l1.06 3.893c.096.333-.015.5-.364.692-.283.15-.19.446.346.437.154-.009.894-.105 1.091-.201.279-.123.012-.395-.107-.823L.138.489c.215.026.455.062.605.185.116.095.512.087.751.052C2.043.604 1.768 0 1.213 0Zm-2.149 2.582a5.884 5.884 0 0 0-.947-.019c-.203.019-.375.174-.614.464-.211.255.045.429.404.35.416-.095.66-.123 1.226-.141.767-.024.477-.62-.069-.654m-.666-2.627c.136.474-.093.806-.524.806-.422 0-.832-.342-.961-.806-.127-.446.09-.804.509-.804.437 0 .854.358.976.804m2.164-3.121c.563-.141.264-.736-.278-.736l-3.004-.034c-.436 0-.823.095-.667.656l.152.541c.07.245-.018.403-.341.491-.204.061-.458.359.245.436.265.027.861-.008 1.079-.052.402-.069.159-.314.069-.63l-.185-.665c-.045-.165.062-.244.194-.244l1.088.018c.183 0 .428.018.624.13.206.123.773.132 1.024.089m-2.927 4.75-.283-.026c-.475-.053-.659-.464-1.401.149-.426.34-.06.525.248.471.279-.035.654-.087 1.12-.096.42-.008 1.442-.018 1.877.15.423.156.992.061 1.15-.027.382-.202.099-.613-.248-.613-.285.018-.983.027-1.63.018a.247.247 0 0 0 .078-.052c.108-.142-.048-.194-.087-.307-.007-.017 1.211-.157.883-1.321-.257-.918-1.323-1.417-2.1-1.417-.767 0-1.544.508-1.285 1.417.325 1.164 1.675 1.321 1.687 1.33.143.14-.06.175-.033.272.003.017.018.033.024.052" style="fill:#fff;fill-opacity:1;fill-rule:nonzero;stroke:none" transform="translate(181.917 442.068)"/><path d="M0 0a.987.987 0 0 1-.375-.383c.324.018.444.048.444.048.065.023.131.045.197.064a.999.999 0 0 1-.09.175A1.05 1.05 0 0 1 0 0m-1.316-9.328c-.818 0-1.438.253-1.84.752-.203.254-.506.781-.348 1.56a1.552 1.552 0 0 0-.409 1.194c.006.046.015.129.045.231-.357.576-.45 1.263-.253 1.964.054.191.126.372.211.544-.51.568-.534 1.226-.357 1.688.242.636.874 1.06 1.633 1.104.027.089.06.177.104.264.366.719 1.273 1.093 2.185.891.3-.068.429-.087.929-.102C.656.76.731.755.802.746c.322.348.834.62 1.574.62l.107-.002c.009-.001 1.136-.08 1.709-.361.096-.041 1.447-.691.737-2.327-.024-.05-.051-.106-.069-.17l-.101-.383c.784-.299 1.264-1.023 1.168-1.819-.116-.966-1.016-1.696-2.098-1.696h-.038a6.341 6.341 0 0 0-.381-.936c.297-.354.437-.808.372-1.293-.129-.953-1.028-1.674-2.095-1.674l-2.985-.033z" style="fill:#fff;fill-opacity:1;fill-rule:nonzero;stroke:none" transform="translate(179.301 446)"/><path d="M0 0c-.327-1.164-.789-1.715-1.073-1.732-.246-.018-.234.376.024 1.32L.012 3.481c.093.333-.018.5-.369.693-.278.149-.185.445.348.437.152-.009.895-.106 1.091-.201.278-.123.015-.395-.108-.823Zm-2.329 2.765-1.447-.026-.521-2.066 1.309.009Zm1.861-5.162c.567-.141.266-.735-.279-.735l-3.011-.035c-.438 0-.824.096-.665.656l.233.832c.069.244-.017.401-.345.48-.206.061-.461.358.247.437.263.027.856-.008 1.079-.044.399-.079.155-.324.068-.638l-.267-.945c-.045-.165.064-.244.199-.244l1.093.017c.183 0 .429.018.626.131.206.123.77.132 1.022.088M-1.892.41c-.05-.175-.274-.27-.497-.27C-3.344.122-4.255.114-4.49.105a.713.713 0 0 0-.554-.377c-.171 0-.335.149-.251.543l.494 2.257c.051.211-.137.306-.375.393-.203.071.003.404.477.447.417.035.965-.104 1.153-.104.06 0 1.142 0 1.302.061.242.078.85.156 1.093.043.341-.192-.103-.447-.216-.735l-.77-1.951c.096-.009.305-.061.245-.272" style="fill:#fff;fill-opacity:1;fill-rule:nonzero;stroke:none" transform="translate(189.532 441.298)"/><path d="m0 0 .012-.353c.009.004.015.01.024.015L.03-.003C.018-.003.009 0 0 0m.048-2.917c-.819 0-1.436.253-1.838.752-.221.273-.551.861-.305 1.74l.027.101a1.63 1.63 0 0 0-.378.751 1.795 1.795 0 0 0-.173.176c-.22.255-.554.81-.369 1.673l.333 1.517a1.498 1.498 0 0 0-.309 1.133c.11.85.905 1.508 1.927 1.602.474.039.919-.03 1.231-.079l.129-.019c.39.001.729.011.878.022.192.051.42.091.644.115.192.576.801 1.21 1.928 1.21l.107-.002c.012-.001 1.139-.08 1.708-.361.096-.041 1.451-.691.737-2.327-.021-.05-.051-.106-.069-.171l-.971-3.574A7.089 7.089 0 0 0 4.801.063c.283-.349.418-.797.355-1.273-.128-.954-1.031-1.674-2.098-1.674L.066-2.917Z" style="fill:#fff;fill-opacity:1;fill-rule:nonzero;stroke:none" transform="translate(185.726 439.59)"/><path d="M0 0c.054.167.184.411.312.7.2.42.435 1.015.546 1.346-.352-.007-2.236-.095-2.245-.095-.443-.062-.685-.482-1.558.236-.161.132-.327.516.432.419.584-.095 3.14-.051 3.436.027.274.097.765.131 1.004.07.45-.122.039-.498-.101-.76-.018-.045-.402-.84-.683-1.295A5.165 5.165 0 0 0 .747.061C.765.07.78.07.792.079c.626.236 1.914.227 1.741-.273-.129-.366-.561-.377-1.064-.34C.95-.499.288-.499-.814-.516l-.381-1.356c.285.008.485.026.56.052.303.079.762.123 1.004.079.432-.113.039-.482-.036-.753L.051-3.525c-.227-.833-.683-1.338-.958-1.357-.229-.017-.246.394-.072 1.041l.377 1.435c-.308-.008-2.032-.088-2.041-.088-.469-.062-.647-.515-1.599.21-.151.114-.309.499.413.438.297-.052.998-.061 1.657-.061l.387 1.373C-2.528-.571-2.882-.622-2.9-.622c-.525-.044-.767-.55-1.83.219-.408.289-.154.517.34.482.444-.044.813-.105 1.523-.105l1.722.009c.208 0 .703 0 1.145.017" style="fill:#fff;fill-opacity:1;fill-rule:nonzero;stroke:none" transform="translate(195.8 442.68)"/><path d="M0 0a1.68 1.68 0 0 0-1.316.616c-.417.511-.438 1.137-.341 1.711a2.365 2.365 0 0 0-.777-.135c-.796 0-1.433.414-1.842.725-.611.468-.855 1.234-.605 1.914.006.015.012.03.015.046-.7.571-.771 1.313-.591 1.834.207.589.836 1.22 2.031 1.168a1.631 1.631 0 0 0-.158 1.455c.203.526.775 1.088 1.776 1.088a3.5 3.5 0 0 0 .417-.027c.137-.021.489-.045 1.198-.045.804 0 1.457.029 1.687.048.432.12.861.135 1.043.135.261 0 .498-.026.708-.08.596-.162 1.037-.538 1.231-1.037.313-.806-.128-1.458-.327-1.742.238-.143.402-.307.519-.459.333-.442.419-.997.24-1.524-.134-.382-.575-1.229-1.888-1.343-.021-.43-.209-.773-.296-.938-.006-.007-.009-.007-.006.008l-.265-.97C2.068 1.028 1.151.067.114.003A2.169 2.169 0 0 0 0 0" style="fill:#fff;fill-opacity:1;fill-rule:nonzero;stroke:none" transform="translate(194.877 436.34)"/><path d="M0 0c.223.019.474.061.623.184.118.097.509.088.75.054.551-.124.275-.727-.279-.727H-.129l-.297-1.119c.208.025.447.06.598.182.116.097.512.088.748.053.552-.123.275-.726-.276-.726H-.572c-.305-.849-.68-1.181-.913-1.19-.229-.017-.259.254-.014 1.19L-.734.735c.093.333-.018.5-.369.693-.278.149-.185.445.348.437.156-.009.894-.106 1.091-.201C.614 1.54.351 1.268.231.84Zm-2.757-3.788c-.446 0-.862-.393-1.001-.883-.134-.481.051-.884.504-.884.438 0 .857.403.992.884.134.481-.057.883-.495.883m1.463-.91c-.243-.866-1.174-1.503-2.14-1.503-.968 0-1.555.637-1.313 1.503.33 1.181 1.701 1.374 1.703 1.382.174.15-.035.201-.008.289.074.271.898.176.972.009.073-.166-.072-.166-.107-.298-.003-.017 1.225-.201.893-1.382M-3.111-.849c.154.552-.072.989-.593.989-.503 0-.988-.41-1.153-.989-.153-.551.101-.97.605-.97.509 0 .98.409 1.141.97m.951-.017c-.281-1.006-1.396-1.619-2.281-1.619-.89 0-1.665.596-1.379 1.609C-5.457.421-4.012.63-4.006.648c.203.167-.045.192-.012.307.087.313.974.21 1.04 0 .057-.15-.081-.175-.11-.307C-3.091.64-1.797.421-2.16-.866" style="fill:#fff;fill-opacity:1;fill-rule:nonzero;stroke:none" transform="translate(207.052 444.044)"/><path d="M0 0c-.968 0-1.829.378-2.358 1.035-.509.634-.666 1.475-.431 2.306.068.251.17.489.298.711a2.76 2.76 0 0 0-.931.742c-.53.657-.69 1.499-.44 2.37.275.988.977 1.772 1.976 2.236.331.539.981.871 1.761.871a2.74 2.74 0 0 0 1.001-.181c.28.469.856.893 1.779.893l.108-.002c.012-.001 1.135-.08 1.707-.361.075-.031.909-.431.945-1.377.808-.289 1.306-1.025 1.21-1.835a1.82 1.82 0 0 0-.486-1.024 1.66 1.66 0 0 0 .033-.586c-.116-.966-1.019-1.696-2.094-1.696h-.24a3.948 3.948 0 0 0-.167-.238 2.63 2.63 0 0 0-.054-1.279C3.194 1.086 1.675 0 0 0" style="fill:#fff;fill-opacity:1;fill-rule:nonzero;stroke:none" transform="translate(203.618 436.384)"/><path d="M0 0c.012 0 .076.262.082.28.093.333-.019.499-.369.692-.279.149-.19.445.347.437.154-.009.896-.105 1.092-.201.278-.123.012-.395-.106-.823L.471-1.767C.166-2.896-.29-3.368-.566-3.377c-.227-.018-.251.289.003 1.225l.121.446a37.937 37.937 0 0 0-.477-.017c-.199-.027-.423-.087-.429-.087-.234-.063-.452-.289-1.049.235-.128.114-.327.455.343.394.331-.027 1.201-.009 1.749 0l.176.656-.458-.019C-.784-.569-1.01-.63-1.016-.63c-.233-.062-.454-.289-1.05.236-.124.113-.328.456.343.394C-1.401-.026-.539-.009 0 0m-1.354-4.182-1.794-.009-.405-1.549h1.744zm.62-1.82c-.048-.149-.251-.271-.473-.271-.959 0-2.244-.018-2.524-.018-.099-.201-.403-.376-.563-.385-.206 0-.362.184-.281.534l.387 1.784c.051.211-.145.281-.387.359-.205.062.069.394.533.429.558.043.963-.104 1.112-.104.075 0 1.529 0 1.684.052.276.095.816.139 1.049.026.363-.184-.114-.49-.203-.718L-.973-5.74c.114-.009.302-.095.239-.262m-.626 3.623c-.815-.307-2.041-.709-3.087-.753-.485-.018-.658.095-.506.638l.5 1.846c.087.298-.08.411-.407.508-.186.052-.434.402.312.464.194.017.769.008 1.037-.036.444-.078.206-.358.113-.682l-.458-1.688c-.045-.193.035-.262.195-.254.594.017 1.675.228 2.433.429.234.07.24-.324-.132-.472" style="fill:#fff;fill-opacity:1;fill-rule:nonzero;stroke:none" transform="translate(214.108 444.5)"/><path d="M0 0c-.554 0-1.07.235-1.413.643-.378.448-.507 1.039-.36 1.665l.215.988c-.215.27-.329.6-.32.953-.369.469-.456 1.063-.258 1.769l.297 1.091a1.616 1.616 0 0 0-.444 1.264c.027.234.235 1.401 1.898 1.538a7.129 7.129 0 0 0 1.428-.051 2.1 2.1 0 0 0 .822-.324c.143.036.308.059.485.064l.027.109c.162.595.773 1.292 1.953 1.292l.109-.002c.012-.001 1.139-.081 1.708-.361.093-.039 1.446-.689.737-2.326-.021-.051-.048-.106-.069-.171l-.567-2.133a5.868 5.868 0 0 0-.521-1.326c.155-.74-.272-1.29-.456-1.516l-.224-.554a1.552 1.552 0 0 0-.048-.974C4.762.931 3.971.402 3.087.402 2.473.402 1.724.396 1.194.39A2.248 2.248 0 0 0 .088.003C.061 0 .03 0 0 0" style="fill:#fff;fill-opacity:1;fill-rule:nonzero;stroke:none" transform="translate(209.814 436.366)"/><path d="M0 0c-.263-.018-.194.541.1 1.617l1.494 5.442c.094.333-.015.5-.364.692-.283.15-.193.446.343.437.157-.008.897-.105 1.091-.2.28-.124.015-.396-.108-.824L1.158 2.065C.795.743.369.025 0 0m-1.488 6.822c-.202.02-.375.167-.617.473-.208.264.06.447.415.368.411-.097.694-.122 1.26-.141.751-.025.454-.646-.094-.68a6.23 6.23 0 0 0-.964-.02m.521-4.269c-.091.149-.572.823-.86 1.208-.936-.77-1.839-1.321-2.448-1.539-.618-.227-.684.069-.443.208 1.046.587 2.522 1.812 3.633 3.238-.319-.025-.748-.052-1.084-.158-.296-.113-.493-.315-1.133.263-.263.236-.149.498.324.447.114-.01.504-.062.856-.062.613 0 1.037.009 1.293.123.206.088.932.053 1.016.026.296-.123 0-.525-.336-.866a17.801 17.801 0 0 0-1.166-1.207c.156-.184.366-.411.477-.481.164-.124.251-.045.399-.167.179-.158.299-.673.317-.823.047-.437-.489-.759-.845-.21" style="fill:#fff;fill-opacity:1;fill-rule:nonzero;stroke:none" transform="translate(220.077 437.72)"/><path d="M0 0a1.026 1.026 0 0 1-.444-.558c.024.001.045.004.06.006a2.5 2.5 0 0 0 .695.144 1.057 1.057 0 0 1-.132.307C.14-.075.081-.035 0 0m.991-9.649c-.516 0-.991.222-1.306.61-.435.533-.438 1.172-.28 1.962-.218.14-.418.326-.587.548-.56-.36-1.094-.639-1.548-.804-1.188-.437-2.302.031-2.583.975-.208.701.11 1.439.793 1.841.366.205.825.523 1.305.921a4.427 4.427 0 0 0-.136.121c-.576.517-.77 1.247-.498 1.903.202.486.622.834 1.152.984.015.206.072.409.173.598.372.713 1.285 1.082 2.182.883C-.061.828.105.807.62.792.722.788.82.778.916.764c.315.383.849.693 1.636.693l.109-.002c.012-.001 1.139-.08 1.708-.361.095-.041 1.449-.691.736-2.327-.021-.051-.05-.107-.068-.172L3.64-6.496c-.389-1.411-1.025-3.043-2.522-3.149a1.873 1.873 0 0 0-.127-.004" style="fill:#fff;fill-opacity:1;fill-rule:nonzero;stroke:none" transform="translate(219.075 445.91)"/><path d="M0 0c-.326-1.164-.787-1.715-1.073-1.732-.245-.018-.233.376.024 1.32L.012 3.481c.093.333-.018.5-.369.693-.278.149-.188.445.348.437.155-.009.897-.106 1.091-.201.282-.123.012-.395-.108-.823Zm-.468-2.397c.564-.141.265-.735-.28-.735l-3.084-.035c-.438 0-.824.096-.665.656l.242.864c.069.246-.018.404-.344.483-.205.061-.459.358.248.438.265.026.858-.009 1.079-.044.399-.079.155-.325.069-.638l-.278-.981c-.045-.165.063-.244.197-.244l1.168.017c.184 0 .426.018.624.131.21.123.773.132 1.024.088m-3.227 3.682c-.101-.008-.203-.016-.272-.026-.178-.017-.357-.096-.366-.096-.227-.069-.423-.332-1.076.202-.296.235-.143.454.298.428.119-.009.442-.034.82-.009.393.018.816.045 1.129.079.295.333.558.665.795 1.006-.351-.018-.608-.053-.836-.069-.171-.019-.362-.08-.368-.08-.261-.096-.471-.341-1.091.236-.27.246-.153.482.308.43.123-.009.51-.053.873-.053.617 0 1.058.008 1.3.105.21.096.944.061 1.025.026.422-.139-.153-.657-.343-.892-1.174-1.497-2.87-2.94-4.14-3.386-.596-.21-.774.044-.494.184.712.366 1.618 1.075 2.438 1.915" style="fill:#fff;fill-opacity:1;fill-rule:nonzero;stroke:none" transform="translate(229.085 441.298)"/><path d="M0 0c-.814 0-1.436.253-1.836.752-.202.251-.498.765-.357 1.52h-.009c-.837 0-1.523.485-1.711 1.207-.187.717.176 1.443.901 1.806l.04.023a1.577 1.577 0 0 0-.19 1.459c.114.291.337.595.677.809-.045.285-.015.576.103.852.272.647.94 1.049 1.738 1.049.096 0 .194-.006.305-.019l.07-.005c.14-.013.383-.036.62-.036.17 0 .617 0 .787.02.217.078.462.124.769.14.224.549.826 1.117 1.896 1.117l.107-.002c.009-.001 1.136-.08 1.708-.362.091-.038 1.448-.689.735-2.327-.024-.05-.051-.106-.069-.171l-.971-3.573a6.554 6.554 0 0 0-.486-1.279c.286-.349.42-.797.358-1.273C5.052.754 4.154.033 3.084.033L.018 0Z" style="fill:#fff;fill-opacity:1;fill-rule:nonzero;stroke:none" transform="translate(225.253 436.673)"/><path d="m0 0 .203.719H4.5L4.3 0Z" style="fill:#fff;fill-opacity:1;fill-rule:nonzero;stroke:none" transform="translate(230.557 441.462)"/><path d="M0 0h-4.3c-.474 0-.92.21-1.21.571-.292.358-.39.826-.268 1.264l.205.718c.179.639.784 1.081 1.476 1.081H.2c.474 0 .924-.212 1.213-.57.292-.36.387-.828.265-1.267l-.2-.717C1.297.443.692 0 0 0" style="fill:#fff;fill-opacity:1;fill-rule:nonzero;stroke:none" transform="translate(234.857 440.006)"/><path d="M0 0c-.768-.315-1.874-.701-2.604-.719-.447 0-.608.106-.456.65l.677 2.405c.078.288-.054.401-.363.507-.183.062-.347.351.273.472.254.053.858-.008 1.258-.079.136-.026.351-.042.531.071.3.175.696.175.998.131.464-.079.267-.666-.269-.717-.339-.035-1.149-.035-1.388-.035L-2.005.332c-.054-.192.033-.237.182-.228.432.026 1.269.22 1.963.42l.824 2.993c.091.324-.018.498-.353.681-.264.15-.172.456.335.438.157 0 .863-.104 1.052-.202.27-.121.012-.392-.108-.821l-.623-2.275h.743l.708 2.572c.092.333-.015.5-.351.693-.265.149-.171.445.339.437.152-.009.859-.106 1.049-.201.272-.124.015-.395-.106-.824L2.247-1.084c-.363-1.322-.789-2.049-1.141-2.065-.253-.018-.19.532.116 1.617L1.848.752h-.736L.686-.796C.32-2.125-.103-2.836-.459-2.861c-.249-.009-.183.551.117 1.618z" style="fill:#ed1c24;fill-opacity:1;fill-rule:nonzero;stroke:none" transform="translate(172.173 440.87)"/><path d="m0 0-.208-.769c-.328-1.164-.787-1.716-1.075-1.732-.242-.018-.23.376.024 1.32l1.06 3.893c.096.333-.015.5-.364.692-.283.15-.19.446.346.437.154-.009.894-.105 1.091-.201.279-.123.012-.395-.107-.823L.138.489c.215.026.455.062.605.185.116.095.512.087.751.052C2.043.604 1.768 0 1.213 0Zm-2.149 2.582a5.884 5.884 0 0 0-.947-.019c-.203.019-.375.174-.614.464-.211.255.045.429.404.35.416-.095.66-.123 1.226-.141.767-.024.477-.62-.069-.654m-.666-2.627c.136.474-.093.806-.524.806-.422 0-.832-.342-.961-.806-.127-.446.09-.804.509-.804.437 0 .854.358.976.804m2.164-3.121c.563-.141.264-.736-.278-.736l-3.004-.034c-.436 0-.823.095-.667.656l.152.541c.07.245-.018.403-.341.491-.204.061-.458.359.245.436.265.027.861-.008 1.079-.052.402-.069.159-.314.069-.63l-.185-.665c-.045-.165.062-.244.194-.244l1.088.018c.183 0 .428.018.624.13.206.123.773.132 1.024.089m-2.927 4.75-.283-.026c-.475-.053-.659-.464-1.401.149-.426.34-.06.525.248.471.279-.035.654-.087 1.12-.096.42-.008 1.442-.018 1.877.15.423.156.992.061 1.15-.027.382-.202.099-.613-.248-.613-.285.018-.983.027-1.63.018a.247.247 0 0 0 .078-.052c.108-.142-.048-.194-.087-.307-.007-.017 1.211-.157.883-1.321-.257-.918-1.323-1.417-2.1-1.417-.767 0-1.544.508-1.285 1.417.325 1.164 1.675 1.321 1.687 1.33.143.14-.06.175-.033.272.003.017.018.033.024.052" style="fill:#ed1c24;fill-opacity:1;fill-rule:nonzero;stroke:none" transform="translate(181.917 442.068)"/><path d="M0 0c-.327-1.164-.789-1.715-1.073-1.732-.246-.018-.234.376.024 1.32L.012 3.481c.093.333-.018.5-.369.693-.278.149-.185.445.348.437.152-.009.895-.106 1.091-.201.278-.123.015-.395-.108-.823Zm-2.329 2.765-1.447-.026-.521-2.066 1.309.009Zm1.861-5.162c.567-.141.266-.735-.279-.735l-3.011-.035c-.438 0-.824.096-.665.656l.233.832c.069.244-.017.401-.345.48-.206.061-.461.358.247.437.263.027.856-.008 1.079-.044.399-.079.155-.324.068-.638l-.267-.945c-.045-.165.064-.244.199-.244l1.093.017c.183 0 .429.018.626.131.206.123.77.132 1.022.088M-1.892.41c-.05-.175-.274-.27-.497-.27C-3.344.122-4.255.114-4.49.105a.713.713 0 0 0-.554-.377c-.171 0-.335.149-.251.543l.494 2.257c.051.211-.137.306-.375.393-.203.071.003.404.477.447.417.035.965-.104 1.153-.104.06 0 1.142 0 1.302.061.242.078.85.156 1.093.043.341-.192-.103-.447-.216-.735l-.77-1.951c.096-.009.305-.061.245-.272" style="fill:#ed1c24;fill-opacity:1;fill-rule:nonzero;stroke:none" transform="translate(189.532 441.298)"/><path d="M0 0c.054.167.184.411.312.7.2.42.435 1.015.546 1.346-.352-.007-2.236-.095-2.245-.095-.443-.062-.685-.482-1.558.236-.161.132-.327.516.432.419.584-.095 3.14-.051 3.436.027.274.097.765.131 1.004.07.45-.122.039-.498-.101-.76-.018-.045-.402-.84-.683-1.295A5.165 5.165 0 0 0 .747.061C.765.07.78.07.792.079c.626.236 1.914.227 1.741-.273-.129-.366-.561-.377-1.064-.34C.95-.499.288-.499-.814-.516l-.381-1.356c.285.008.485.026.56.052.303.079.762.123 1.004.079.432-.113.039-.482-.036-.753L.051-3.525c-.227-.833-.683-1.338-.958-1.357-.229-.017-.246.394-.072 1.041l.377 1.435c-.308-.008-2.032-.088-2.041-.088-.469-.062-.647-.515-1.599.21-.151.114-.309.499.413.438.297-.052.998-.061 1.657-.061l.387 1.373C-2.528-.571-2.882-.622-2.9-.622c-.525-.044-.767-.55-1.83.219-.408.289-.154.517.34.482.444-.044.813-.105 1.523-.105l1.722.009c.208 0 .703 0 1.145.017" style="fill:#ed1c24;fill-opacity:1;fill-rule:nonzero;stroke:none" transform="translate(195.8 442.68)"/><path d="M0 0c.223.019.474.061.623.184.118.097.509.088.75.054.551-.124.275-.727-.279-.727H-.129l-.297-1.119c.208.025.447.06.598.182.116.097.512.088.748.053.552-.123.275-.726-.276-.726H-.572c-.305-.849-.68-1.181-.913-1.19-.229-.017-.259.254-.014 1.19L-.734.735c.093.333-.018.5-.369.693-.278.149-.185.445.348.437.156-.009.894-.106 1.091-.201C.614 1.54.351 1.268.231.84Zm-2.757-3.788c-.446 0-.862-.393-1.001-.883-.134-.481.051-.884.504-.884.438 0 .857.403.992.884.134.481-.057.883-.495.883m1.463-.91c-.243-.866-1.174-1.503-2.14-1.503-.968 0-1.555.637-1.313 1.503.33 1.181 1.701 1.374 1.703 1.382.174.15-.035.201-.008.289.074.271.898.176.972.009.073-.166-.072-.166-.107-.298-.003-.017 1.225-.201.893-1.382M-3.111-.849c.154.552-.072.989-.593.989-.503 0-.988-.41-1.153-.989-.153-.551.101-.97.605-.97.509 0 .98.409 1.141.97m.951-.017c-.281-1.006-1.396-1.619-2.281-1.619-.89 0-1.665.596-1.379 1.609C-5.457.421-4.012.63-4.006.648c.203.167-.045.192-.012.307.087.313.974.21 1.04 0 .057-.15-.081-.175-.11-.307C-3.091.64-1.797.421-2.16-.866" style="fill:#ed1c24;fill-opacity:1;fill-rule:nonzero;stroke:none" transform="translate(207.052 444.044)"/><path d="M0 0c.012 0 .076.262.082.28.093.333-.019.499-.369.692-.279.149-.19.445.347.437.154-.009.896-.105 1.092-.201.278-.123.012-.395-.106-.823L.471-1.767C.166-2.896-.29-3.368-.566-3.377c-.227-.018-.251.289.003 1.225l.121.446a37.937 37.937 0 0 0-.477-.017c-.199-.027-.423-.087-.429-.087-.234-.063-.452-.289-1.049.235-.128.114-.327.455.343.394.331-.027 1.201-.009 1.749 0l.176.656-.458-.019C-.784-.569-1.01-.63-1.016-.63c-.233-.062-.454-.289-1.05.236-.124.113-.328.456.343.394C-1.401-.026-.539-.009 0 0m-1.354-4.182-1.794-.009-.405-1.549h1.744zm.62-1.82c-.048-.149-.251-.271-.473-.271-.959 0-2.244-.018-2.524-.018-.099-.201-.403-.376-.563-.385-.206 0-.362.184-.281.534l.387 1.784c.051.211-.145.281-.387.359-.205.062.069.394.533.429.558.043.963-.104 1.112-.104.075 0 1.529 0 1.684.052.276.095.816.139 1.049.026.363-.184-.114-.49-.203-.718L-.973-5.74c.114-.009.302-.095.239-.262m-.626 3.623c-.815-.307-2.041-.709-3.087-.753-.485-.018-.658.095-.506.638l.5 1.846c.087.298-.08.411-.407.508-.186.052-.434.402.312.464.194.017.769.008 1.037-.036.444-.078.206-.358.113-.682l-.458-1.688c-.045-.193.035-.262.195-.254.594.017 1.675.228 2.433.429.234.07.24-.324-.132-.472" style="fill:#ed1c24;fill-opacity:1;fill-rule:nonzero;stroke:none" transform="translate(214.108 444.5)"/><path d="M0 0c-.263-.018-.194.541.1 1.617l1.494 5.442c.094.333-.015.5-.364.692-.283.15-.193.446.343.437.157-.008.897-.105 1.091-.2.28-.124.015-.396-.108-.824L1.158 2.065C.795.743.369.025 0 0m-1.488 6.822c-.202.02-.375.167-.617.473-.208.264.06.447.415.368.411-.097.694-.122 1.26-.141.751-.025.454-.646-.094-.68a6.23 6.23 0 0 0-.964-.02m.521-4.269c-.091.149-.572.823-.86 1.208-.936-.77-1.839-1.321-2.448-1.539-.618-.227-.684.069-.443.208 1.046.587 2.522 1.812 3.633 3.238-.319-.025-.748-.052-1.084-.158-.296-.113-.493-.315-1.133.263-.263.236-.149.498.324.447.114-.01.504-.062.856-.062.613 0 1.037.009 1.293.123.206.088.932.053 1.016.026.296-.123 0-.525-.336-.866a17.801 17.801 0 0 0-1.166-1.207c.156-.184.366-.411.477-.481.164-.124.251-.045.399-.167.179-.158.299-.673.317-.823.047-.437-.489-.759-.845-.21" style="fill:#ed1c24;fill-opacity:1;fill-rule:nonzero;stroke:none" transform="translate(220.077 437.72)"/><path d="M0 0c-.326-1.164-.787-1.715-1.073-1.732-.245-.018-.233.376.024 1.32L.012 3.481c.093.333-.018.5-.369.693-.278.149-.188.445.348.437.155-.009.897-.106 1.091-.201.282-.123.012-.395-.108-.823Zm-.468-2.397c.564-.141.265-.735-.28-.735l-3.084-.035c-.438 0-.824.096-.665.656l.242.864c.069.246-.018.404-.344.483-.205.061-.459.358.248.438.265.026.858-.009 1.079-.044.399-.079.155-.325.069-.638l-.278-.981c-.045-.165.063-.244.197-.244l1.168.017c.184 0 .426.018.624.131.21.123.773.132 1.024.088m-3.227 3.682c-.101-.008-.203-.016-.272-.026-.178-.017-.357-.096-.366-.096-.227-.069-.423-.332-1.076.202-.296.235-.143.454.298.428.119-.009.442-.034.82-.009.393.018.816.045 1.129.079.295.333.558.665.795 1.006-.351-.018-.608-.053-.836-.069-.171-.019-.362-.08-.368-.08-.261-.096-.471-.341-1.091.236-.27.246-.153.482.308.43.123-.009.51-.053.873-.053.617 0 1.058.008 1.3.105.21.096.944.061 1.025.026.422-.139-.153-.657-.343-.892-1.174-1.497-2.87-2.94-4.14-3.386-.596-.21-.774.044-.494.184.712.366 1.618 1.075 2.438 1.915" style="fill:#ed1c24;fill-opacity:1;fill-rule:nonzero;stroke:none" transform="translate(229.085 441.298)"/><path d="m0 0 .203.719H4.5L4.3 0Z" style="fill:#ed1c24;fill-opacity:1;fill-rule:nonzero;stroke:none" transform="translate(230.557 441.462)"/></g></svg>