<svg xmlns="http://www.w3.org/2000/svg" width="418.66666" height="62.666668" viewBox="0 0 418.66666 62.666668"><path d="m736.637 454.414-27.285-48.996c-18.973-33.594-37.567-68.137-55.786-103.617-1.062-2.074-4.011-2.129-5.125-.078-10.359 19.078-29.753 53.433-58.171 103.074l-28.528 49.617h-259.39L146.141 284.988c-1.793-1.945-5.043-.675-5.043 1.973v167.453H.582v-9.883c16.473-5.058 16.473-35.019 16.473-56.011V12.828h124.043v126.524l47.695 48.285a2.913 2.913 0 0 0 4.512-.465L306.07 12.828h146.371L281.367 270.047a5.81 5.81 0 0 0 .649 7.25l151.855 157.82 152.68-252.351V12.828H710.59v169.938l161.875 271.648H736.637M1056.34 464.336c-69.043 0-125.07-20.879-168.07-62.641-42.586-42.172-63.879-98.199-63.879-168.07 0-70.289 21.293-126.109 63.879-167.457C930.859 23.992 986.883 2.91 1056.34 2.91c69.47 0 125.5 21.082 168.08 63.258 42.58 41.348 63.88 97.168 63.88 167.457 0 69.871-21.3 125.898-63.88 168.07-43 41.762-99.03 62.641-168.08 62.641zm75.05-321.266c-18.61-21.91-43.62-32.867-75.05-32.867-31.42 0-56.438 10.957-75.039 32.867-18.606 21.504-27.91 51.688-27.91 90.555 0 38.039 9.304 68.117 27.91 90.238 18.601 22.121 43.619 33.18 75.039 33.18 31.43 0 56.44-11.059 75.05-33.18 18.61-22.121 27.91-52.199 27.91-90.238 0-38.867-9.3-69.051-27.91-90.555M2063.54 297.039a3.879 3.879 0 0 0-3.88-3.875h-144.2a3.87 3.87 0 0 0-3.87 3.875v157.375H1771.07v-9.883c16.47-5.058 16.47-35.019 16.47-56.011V12.828h124.05v166.059c0 2.14 1.73 3.879 3.87 3.879h144.2c2.14 0 3.88-1.739 3.88-3.879V12.828h124.03v441.586h-124.03V297.039M2462.93 464.336c-69.05 0-125.07-20.879-168.07-62.641-42.59-42.172-63.88-98.199-63.88-168.07 0-70.289 21.29-126.109 63.88-167.457 42.59-42.176 98.6-63.258 168.07-63.258 69.46 0 125.49 21.082 168.07 63.258 42.59 41.348 63.88 97.168 63.88 167.457 0 69.871-21.29 125.898-63.88 168.07-42.99 41.762-99.02 62.641-168.07 62.641zm75.05-321.266c-18.61-21.91-43.63-32.867-75.05-32.867-31.42 0-56.44 10.957-75.04 32.867-18.61 21.504-27.91 51.688-27.91 90.555 0 38.039 9.3 68.117 27.91 90.238 18.6 22.121 43.62 33.18 75.04 33.18 31.42 0 56.44-11.059 75.05-33.18 18.61-22.121 27.9-52.199 27.9-90.238 0-38.867-9.29-69.051-27.9-90.555M3020.48 382.473c0-65.864.94-127.969 2.82-186.309.06-2.059-2.66-2.777-3.62-.949-17.17 32.848-36.13 66.941-56.88 102.289l-93.66 156.91H2721.81v-9.883c16.48-5.058 16.48-35.019 16.48-56.011V12.828h117.84v71.945c0 65.411-.95 127.254-2.82 185.528-.07 2.058 2.69 2.762 3.64.929 14.78-28.617 33.73-62.445 56.85-101.488l93.65-156.914h130.87v441.586h-117.84v-71.941M1605.05 129.117c-16.33-13.437-36.9-20.156-61.71-20.156-31.84 0-56.02 10.75-72.56 32.254-16.54 21.5-24.81 52.301-24.81 92.41 0 40.105 8.27 70.906 24.81 92.406s40.72 32.25 72.56 32.25c22.74 0 42.18-5.89 58.3-17.672 16.13-11.785 27.08-28.632 32.87-50.55h.31l123.09 10.808c-9.65 49.449-32.79 88.645-69.44 117.574-40.11 30.598-88.48 45.895-145.13 45.895-70.29 0-125.48-20.672-165.59-62.02-40.52-41.757-60.78-97.992-60.78-168.691 0-70.707 20.67-126.73 62.02-168.078 40.93-41.758 95.72-62.637 164.35-62.637 58.72 0 107.92 16.125 147.61 48.375 36.8 29.824 59.45 71.09 67.94 123.778l-122.53 10.757c-4.55-24.371-14.98-43.273-31.31-56.703" style="fill:#231f20;fill-opacity:1;fill-rule:nonzero;stroke:none" transform="matrix(.13333 0 0 -.13333 0 62.667)"/></svg>