<svg xmlns="http://www.w3.org/2000/svg" xml:space="preserve" width="883.72394" height="313.16281" viewBox="0 0 883.72393 313.16281"><g style="fill:#e6be26;stroke-width:.218381"><path d="M0 0c-22.883 0-45.787 2.269-68.673 4.41-3.086.288-5.601 2.919-5.601 5.953v27.004c0 3.034 2.516 5.655 5.601 5.938 22.886 2.104 45.79 4.319 68.673 4.319s45.787-2.215 68.673-4.319c3.085-.283 5.601-2.904 5.601-5.938V10.363c0-3.034-2.515-5.665-5.601-5.953C45.788 2.269 22.883 0 0 0" style="fill:#e6be26;fill-opacity:1;fill-rule:evenodd;stroke:none;stroke-width:.218381" transform="matrix(5.8836 0 0 -6.33589 441.31 308.761)"/></g><g style="fill:#23497c;fill-opacity:1;stroke-width:.235224"><path d="M0 0c-22.883 0-45.787 2.269-68.673 4.41-3.086.288-5.601 2.919-5.601 5.953v27.004c0 3.034 2.516 5.655 5.601 5.938 22.886 2.104 45.79 4.319 68.673 4.319s45.787-2.215 68.673-4.319c3.085-.283 5.601-2.904 5.601-5.938V10.363c0-3.034-2.515-5.665-5.601-5.953C45.788 2.269 22.883 0 0 0" style="fill:#23497c;fill-opacity:1;fill-rule:evenodd;stroke:none;stroke-width:.235224" transform="matrix(5.66835 0 0 -5.66835 441.86 292.175)"/></g><g style="fill:#e6be26;fill-opacity:1;stroke:#e6be26;stroke-width:.235224"><path d="M0 0a2.523 2.523 0 1 0 0-5.046A2.523 2.523 0 0 0 0 0m-8.915 19.881V18.09c0-.914.745-1.66 1.66-1.66h7.149c2.094 0 3.787-1.713 3.854-3.807V7.611H.365a.666.666 0 0 0-.664.664v2.635c0 .872-.714 1.587-1.587 1.587h-2.005a1.59 1.59 0 0 1-1.587-1.587V8.275a.666.666 0 0 0-.664-.664h-3.513a1.59 1.59 0 0 1-1.587-1.587V4.019c0-.873.714-1.587 1.587-1.587h3.966a7.545 7.545 0 1 1 11.378 0h3.929c.873 0 1.587.714 1.587 1.587v2.005c0 .873-.714 1.587-1.587 1.587h-.936q.047.19.047.392v5.975c0 4.16-3.403 7.563-7.562 7.563h-8.422c-.915 0-1.66-.746-1.66-1.66m-8.036-12.18h1.054c1.111 0 2.02-.909 2.02-2.02V4.627c0-1.111-.909-2.02-2.02-2.02h-1.054c-1.111 0-2.02.909-2.02 2.02v1.054c0 1.111.909 2.02 2.02 2.02m-35.373 0h1.054a2.027 2.027 0 0 0 2.021-2.02V4.627c0-1.111-.91-2.02-2.021-2.02h-1.054c-1.111 0-2.02.909-2.02 2.02v1.054c0 1.111.909 2.02 2.02 2.02m27.371 13.78h2.005c.873 0 1.587-.714 1.587-1.587v-15.7c0-.873-.714-1.587-1.587-1.587h-2.005c-.873 0-1.587.714-1.587 1.587v15.7c0 .873.714 1.587 1.587 1.587m-7.887-8.322 4.92-7.121a1.59 1.59 0 0 0-.403-2.207l-1.65-1.141a1.59 1.59 0 0 0-2.208.404l-4.979 7.205-4.979-7.205a1.59 1.59 0 0 0-2.208-.404l-1.65 1.141a1.59 1.59 0 0 0-.403 2.207l4.921 7.121c.1.146.111.323.029.48a.46.46 0 0 1-.412.249h-3.265c-.809 0-1.47.595-1.47 1.404v1.791c0 .808.661 1.47 1.47 1.47h4.756c.366 0 .664.298.664.664v.804c0 .809.702 1.471 1.561 1.471h1.972c.859 0 1.561-.662 1.561-1.471v-.804c0-.366.299-.664.664-.664h4.756c.809 0 1.47-.662 1.47-1.47v-1.791c0-.809-.661-1.404-1.47-1.404h-3.265a.46.46 0 0 1-.412-.249.46.46 0 0 1 .03-.48m-29.471 8.322h2.006c.873 0 1.587-.714 1.587-1.587v-4.821c0-.238.176-.435.412-.462 1.144-.13 2.06-.812 2.06-2.122v-.89c0-1.31-.916-1.993-2.06-2.122a.463.463 0 0 1-.412-.462V4.194c0-.873-.714-1.587-1.587-1.587h-2.006c-.873 0-1.587.714-1.587 1.587v15.7c0 .873.714 1.587 1.587 1.587m-16.295 0h1.79c.915 0 1.661-.746 1.661-1.66v-8.379a3.82 3.82 0 0 1 3.806-3.807h4.62c.914 0 1.66-.746 1.66-1.66V4.267c0-.915-.746-1.66-1.66-1.66h-5.975c-4.159 0-7.562 3.403-7.562 7.562v9.652c0 .914.745 1.66 1.66 1.66m-7.099-13.78h1.053a2.026 2.026 0 0 0 2.021-2.02V4.627c0-1.111-.909-2.02-2.021-2.02h-1.053a2.027 2.027 0 0 0-2.021 2.02v1.054c0 1.111.91 2.02 2.021 2.02m-19.544 8.601h-2.642a.533.533 0 0 1-.532-.532V8.317c0-.292.239-.531.532-.531h2.642c.293 0 .531.239.531.531v7.453a.53.53 0 0 1-.531.532m-10.758 1.587v2.005c0 .873.714 1.587 1.587 1.587h15.7c.873 0 1.587-.714 1.587-1.587v-2.005c0-.873-.714-1.587-1.587-1.587h-.951V7.786h.951c.873 0 1.587-.714 1.587-1.587V4.194c0-.873-.714-1.587-1.587-1.587h-15.7c-.873 0-1.587.714-1.587 1.587v2.005c0 .873.714 1.587 1.587 1.587h.951v8.516h-.951c-.873 0-1.587.714-1.587 1.587m21.655 3.592h2.006c.872 0 1.587-.714 1.587-1.587v-15.7c0-.873-.715-1.587-1.587-1.587h-2.006c-.873 0-1.587.714-1.587 1.587v15.7c0 .873.714 1.587 1.587 1.587" style="fill:#e6be26;fill-opacity:1;fill-rule:evenodd;stroke:#e6be26;stroke-width:.235224" transform="matrix(5.66835 0 0 -5.66835 738.713 189.04)"/></g><g style="fill:#e6be26;fill-opacity:1;stroke:#e6be26;stroke-width:.235224"><path d="M0 0a2.523 2.523 0 1 0 0-5.046A2.523 2.523 0 0 0 0 0Zm-8.915 19.881V18.09c0-.914.745-1.66 1.66-1.66h7.149c2.094 0 3.787-1.713 3.854-3.807V7.611H.365a.666.666 0 0 0-.664.664v2.635c0 .872-.714 1.587-1.587 1.587h-2.005a1.59 1.59 0 0 1-1.587-1.587V8.275a.666.666 0 0 0-.664-.664h-3.513a1.59 1.59 0 0 1-1.587-1.587V4.019c0-.873.714-1.587 1.587-1.587h3.966a7.545 7.545 0 1 1 11.378 0h3.929c.873 0 1.587.714 1.587 1.587v2.005c0 .873-.714 1.587-1.587 1.587h-.936q.047.19.047.392v5.975c0 4.16-3.403 7.563-7.562 7.563h-8.422c-.915 0-1.66-.746-1.66-1.66zm-8.036-12.18h1.054c1.111 0 2.02-.909 2.02-2.02V4.627c0-1.111-.909-2.02-2.02-2.02h-1.054c-1.111 0-2.02.909-2.02 2.02v1.054c0 1.111.909 2.02 2.02 2.02zm-35.373 0h1.054a2.027 2.027 0 0 0 2.021-2.02V4.627c0-1.111-.91-2.02-2.021-2.02h-1.054c-1.111 0-2.02.909-2.02 2.02v1.054c0 1.111.909 2.02 2.02 2.02zm27.371 13.78h2.005c.873 0 1.587-.714 1.587-1.587v-15.7c0-.873-.714-1.587-1.587-1.587h-2.005c-.873 0-1.587.714-1.587 1.587v15.7c0 .873.714 1.587 1.587 1.587zm-7.887-8.322 4.92-7.121a1.59 1.59 0 0 0-.403-2.207l-1.65-1.141a1.59 1.59 0 0 0-2.208.404l-4.979 7.205-4.979-7.205a1.59 1.59 0 0 0-2.208-.404l-1.65 1.141a1.59 1.59 0 0 0-.403 2.207l4.921 7.121c.1.146.111.323.029.48a.46.46 0 0 1-.412.249h-3.265c-.809 0-1.47.595-1.47 1.404v1.791c0 .808.661 1.47 1.47 1.47h4.756c.366 0 .664.298.664.664v.804c0 .809.702 1.471 1.561 1.471h1.972c.859 0 1.561-.662 1.561-1.471v-.804c0-.366.299-.664.664-.664h4.756c.809 0 1.47-.662 1.47-1.47v-1.791c0-.809-.661-1.404-1.47-1.404h-3.265a.46.46 0 0 1-.412-.249.46.46 0 0 1 .03-.48zm-29.471 8.322h2.006c.873 0 1.587-.714 1.587-1.587v-4.821c0-.238.176-.435.412-.462 1.144-.13 2.06-.812 2.06-2.122v-.89c0-1.31-.916-1.993-2.06-2.122a.463.463 0 0 1-.412-.462V4.194c0-.873-.714-1.587-1.587-1.587h-2.006c-.873 0-1.587.714-1.587 1.587v15.7c0 .873.714 1.587 1.587 1.587zm-16.295 0h1.79c.915 0 1.661-.746 1.661-1.66v-8.379a3.82 3.82 0 0 1 3.806-3.807h4.62c.914 0 1.66-.746 1.66-1.66V4.267c0-.915-.746-1.66-1.66-1.66h-5.975c-4.159 0-7.562 3.403-7.562 7.562v9.652c0 .914.745 1.66 1.66 1.66zm-7.099-13.78h1.053a2.026 2.026 0 0 0 2.021-2.02V4.627c0-1.111-.909-2.02-2.021-2.02h-1.053a2.027 2.027 0 0 0-2.021 2.02v1.054c0 1.111.91 2.02 2.021 2.02zm-19.544 8.601h-2.642a.533.533 0 0 1-.532-.532V8.317c0-.292.239-.531.532-.531h2.642c.293 0 .531.239.531.531v7.453a.53.53 0 0 1-.531.532zm-10.758 1.587v2.005c0 .873.714 1.587 1.587 1.587h15.7c.873 0 1.587-.714 1.587-1.587v-2.005c0-.873-.714-1.587-1.587-1.587h-.951V7.786h.951c.873 0 1.587-.714 1.587-1.587V4.194c0-.873-.714-1.587-1.587-1.587h-15.7c-.873 0-1.587.714-1.587 1.587v2.005c0 .873.714 1.587 1.587 1.587h.951v8.516h-.951c-.873 0-1.587.714-1.587 1.587zm21.655 3.592h2.006c.872 0 1.587-.714 1.587-1.587v-15.7c0-.873-.715-1.587-1.587-1.587h-2.006c-.873 0-1.587.714-1.587 1.587v15.7c0 .873.714 1.587 1.587 1.587z" style="fill:#e6be26;fill-opacity:1;stroke:#e6be26;stroke-width:.133372;stroke-linecap:butt;stroke-linejoin:miter;stroke-miterlimit:22.926;stroke-dasharray:none;stroke-opacity:1" transform="matrix(5.66835 0 0 -5.66835 738.713 189.04)"/></g><path d="M319.306 379.003h-4.54v22.625h4.54zm51.169 9.671-2.828 9.625-2.827-9.625zm7.388-9.476h-4.43l-2.061 6.488h-7.449l-2.062-6.488h-4.46l7.096 22.553h6.275zm-22.497-.025h-15.68v2.793l10.816 16.797h-10.815v2.988h15.679v-2.767l-10.79-16.801h10.79zm-17.937 0h-15.678v2.793l10.815 16.797h-10.815v2.988h15.678v-2.767l-10.785-16.801h10.785zm-30.213 13.54v3.945c0 1.403-.63 2.105-1.875 2.105h-5.085v-8.154h5.085c1.16 0 1.781.701 1.875 2.104m4.374-.489q-.001-1.836-1.577-3.23-1.573-1.399-3.78-1.4h-5.977v-8.396h-4.344v22.553h10.322q2.204 0 3.78-1.398c1.05-.927 1.576-2.007 1.576-3.231z" style="fill:#e6be26;fill-opacity:1;fill-rule:evenodd;stroke:#e6be26;stroke-width:.999999" transform="matrix(1.33333 0 0 -1.33333 -303.312 737.925)"/><g style="fill:#e6be26;fill-opacity:1;stroke:#e6be26;stroke-width:.235224"><path d="m0 0-.665 2.264L-1.329 0Zm1.738-2.229H.697L.211-.703H-1.54l-.486-1.526h-1.048l1.668 5.305H.07Zm-6.673 3.237v.87q0 .495-.441.495h-1.195V.507h1.195q.41 0 .441.501m1.675-3.237h-1.15L-5.586-.196h-.985v-2.033h-1.023v5.305h2.43q.518 0 .888-.328.37-.329.371-.761V.893a1 1 0 0 0-.176-.556 1.2 1.2 0 0 0-.463-.406zM-9.722 0l-.665 2.264L-11.052 0Zm1.739-2.229h-1.042l-.486 1.526h-1.751l-.486-1.526h-1.049l1.669 5.305h1.476zm-5.203 0h-.991l-1.911 3.421v-3.421h-1.029v5.305h.965l1.936-3.427v3.427h1.03z" style="fill:#e6be26;fill-opacity:1;fill-rule:evenodd;stroke:#e6be26;stroke-width:.235224" transform="matrix(5.66835 0 0 -5.66835 314.437 219.693)"/></g><path d="M524.982 379.003h-4.54v22.625h4.54zm74.236.195h-4.213l-8.124 14.544v-14.544h-4.375v22.553h4.103l8.234-14.569v14.57h4.375zm-18.859 0h-14.781v22.553h14.51v-2.988h-10.136v-6.441h9.889v-2.989h-9.889v-7.125h10.407zm-16.222 22.553-8.94-10.823 8.803-11.73h-5.135l-7.47 9.893h-.76v-9.893h-4.38v22.553h4.38v-9.671h.378l7.962 9.671zm-20.351-17.927c0-1.22-.523-2.3-1.577-3.231q-1.575-1.396-3.776-1.395h-5.029q-2.175 0-3.737 1.395c-1.041.93-1.56 2.01-1.56 3.23v13.299c0 1.224.519 2.304 1.56 3.23q1.563 1.399 3.737 1.4h5.03q2.199-.001 3.775-1.4c1.054-.926 1.577-2.006 1.577-3.23v-1.667h-4.375v1.203q0 2.105-1.875 2.105h-3.21c-1.245 0-1.874-.702-1.874-2.105v-12.341c.072-1.407.701-2.109 1.875-2.109h3.21q1.74 0 1.874 2.109v1.199h4.375zm-26.524-4.626h-4.37v9.99h-6.96v-9.99h-4.344v22.553h4.344v-9.574h6.96v9.574h4.37zm-18.204 4.626c0-1.22-.523-2.3-1.573-3.231q-1.58-1.396-3.78-1.395h-5.024q-2.174 0-3.737 1.395c-1.042.93-1.564 2.01-1.564 3.23v13.299c0 1.224.522 2.304 1.564 3.23q1.563 1.399 3.737 1.4h5.025q2.199-.001 3.78-1.4c1.05-.926 1.572-2.006 1.572-3.23v-1.667h-4.374v1.203q0 2.105-1.875 2.105h-3.206q-1.875 0-1.874-2.105v-12.341q.108-2.11 1.874-2.109h3.206q1.74 0 1.875 2.109v1.199h4.374z" style="fill:#e6be26;fill-opacity:1;fill-rule:evenodd;stroke:#e6be26;stroke-width:.999999" transform="matrix(1.33333 0 0 -1.33333 -303.312 737.925)"/><g style="fill:#e6be26;fill-opacity:1;stroke:#e6be26;stroke-width:.235224"><path d="M0 0q0-.432-.371-.76a1.3 1.3 0 0 0-.888-.329h-1.182q-.512 0-.879.329-.368.328-.368.76v4.216h1.023V.115q.026-.495.441-.495h.754q.41 0 .441.495v4.101H0Zm-4.302 0a1.02 1.02 0 0 0-.341-.763 1.2 1.2 0 0 0-.853-.326h-.876q-.512 0-.85.326A1.02 1.02 0 0 0-7.561 0v.507h1.022V.115q.007-.166.029-.259a.3.3 0 0 1 .106-.164q.082-.072.243-.072h.453q.121 0 .199.035.076.034.112.112a1 1 0 0 1 .051.149q.015.073.022.199v4.101h1.022zm-3.623 0q0-.432-.371-.76a1.3 1.3 0 0 0-.889-.329h-1.182q-.511 0-.879.329-.367.328-.367.76v3.128q0 .432.367.76t.879.328h1.182q.519 0 .889-.328t.371-.76v-.449h-1.029v.339q0 .496-.442.496h-.754q-.441 0-.441-.496V.115q.025-.495.441-.495h.754q.41 0 .442.495v.83h-.966v.702h1.355q.313 0 .477-.161a.5.5 0 0 0 .163-.351zm-4.289-1.089h-.991l-1.911 3.422v-3.422h-1.029v5.305h.965l1.937-3.427v3.427h1.029zM-17.775.058v2.995q0 .3-.259.461a1.04 1.04 0 0 1-.559.161q-.307 0-.562-.161a.51.51 0 0 1-.256-.461V.058q0-.3.256-.464.255-.165.562-.164.3 0 .559.164a.52.52 0 0 1 .259.464m1.029-.115q0-.363-.297-.646a1.8 1.8 0 0 0-.71-.414 2.7 2.7 0 0 0-1.668 0 1.85 1.85 0 0 0-.713.414q-.3.283-.3.646v3.225q0 .357.3.639t.716.418a2.66 2.66 0 0 0 1.665 0q.413-.135.71-.418.297-.282.297-.639zM-21.029 0q0-.432-.37-.76a1.3 1.3 0 0 0-.889-.329h-1.182q-.511 0-.879.329-.367.328-.367.76v3.128q0 .432.367.76.368.328.879.328h1.182q.519 0 .889-.328t.37-.76v-.449h-1.028v.339q0 .496-.441.496h-.755q-.441 0-.441-.496V.115q.026-.495.441-.495h.755q.408 0 .441.495v.83h-.965v.702h1.354q.313 0 .477-.161a.49.49 0 0 0 .162-.351z" style="fill:#e6be26;fill-opacity:1;fill-rule:evenodd;stroke:#e6be26;stroke-width:.235224" transform="matrix(5.66835 0 0 -5.66835 652.653 226.157)"/></g><g style="fill:#23497c;fill-opacity:1;stroke-width:.235224"><path d="M0 0c46.675-5.803 87.962-5.814 134.637 0 4.92.46 10.634 2.027 10.634 7.015v30.108c0 4.99-1.712 8.121-6.634 8.573-54.809 6.926-88.921 6.928-142.637 0-4.922-.452-6.634-3.583-6.634-8.573V7.015C-10.634 2.027-4.92.46 0 0m67.318-2.34C44.297-2.34 21.37-.064-1.511 2.077c-3.894.364-7.131 3.67-7.131 7.632v27.004c0 3.957 3.234 7.26 7.133 7.618 22.88 2.103 45.802 4.327 68.827 4.327 23.026 0 45.948-2.224 68.828-4.327 3.899-.358 7.133-3.661 7.133-7.618V9.709c0-3.962-3.237-7.268-7.131-7.632C113.267-.064 90.34-2.34 67.318-2.34" style="fill:#23497c;fill-opacity:1;fill-rule:evenodd;stroke:none;stroke-width:.235224" transform="matrix(5.66835 0 0 -5.66835 60.277 288.47)"/></g></svg>