<svg xmlns="http://www.w3.org/2000/svg" xml:space="preserve" width="1307.7527" height="286.38275" viewBox="0 0 1307.7527 286.38275"><defs><clipPath id="b" clipPathUnits="userSpaceOnUse"><path d="M1558.87 1349.31h263.88v-263.88h-263.88z"/></clipPath><clipPath id="a" clipPathUnits="userSpaceOnUse"><path d="M1558.87 1349.31h263.88v-263.88h-263.88z"/></clipPath><mask id="c" width="1" height="1" x="0" y="0" maskUnits="userSpaceOnUse"><g clip-path="url(#a)"><image width="1" height="1" preserveAspectRatio="none" style="image-rendering:optimizeSpeed" transform="matrix(263.87769 0 0 -263.87769 1558.87 1349.311)"/></g></mask><mask id="d" width="1" height="1" x="0" y="0" maskUnits="userSpaceOnUse"><image width="1" height="1" preserveAspectRatio="none" style="image-rendering:optimizeSpeed"/></mask></defs><g style="stroke-width:1.22854"><g style="stroke-width:1.22854"><g style="stroke-width:1.22854"><g clip-path="url(#b)" opacity="0.300003" style="stroke-width:1.86507" transform="matrix(1.0853 0 0 -1.0853 -1691.83 1464.396)"><g style="stroke-width:1.22854"><g mask="url(#c)" style="stroke-width:1.22854"><image width="1" height="1" mask="url(#d)" preserveAspectRatio="none" style="stroke-width:1.22854;image-rendering:optimizeSpeed" transform="matrix(263.87769 0 0 -263.87769 1558.87 1349.311)"/></g></g></g></g></g><g style="stroke-width:1.22854"><path d="M0 0c-16.422 0-32.363-3.221-47.39-9.54a121.9 121.9 0 0 1-38.743-26.019c-11.191-11.16-20.011-24.157-26.197-38.635-6.396-15.011-9.679-30.943-9.76-47.374-.066-16.473 3.098-32.486 9.397-47.563 6.089-14.576 14.837-27.665 26.003-38.918 11.151-11.263 24.168-20.123 38.677-26.33C-32.972-240.82-17-244.113-.526-244.19h.542c16.422 0 32.373 3.211 47.379 9.541 14.514 6.119 27.546 14.867 38.758 26.022 11.202 11.156 20.011 24.152 26.193 38.621 6.4 15.011 9.677 30.947 9.755 47.379.076 16.479-3.083 32.486-9.387 47.573-6.095 14.562-14.843 27.66-25.998 38.913C75.55-24.883 62.533-16.022 48.028-9.811 32.997-3.374 17.01-.076.547 0Z" style="fill:#fff;fill-opacity:1;fill-rule:nonzero;stroke:none;stroke-width:1.22854" transform="matrix(1.0853 0 0 -1.0853 139.605 7.117)"/></g><g style="stroke-width:1.22854"><path d="M0 0a143 143 0 0 1-3.257 7.117c.685 3.927.843 8.017.424 12.209-.925 13.16-7.577 23.467-11.457 28.446 0 0-.773.952-1.269 1.499-.455.506-.91.966-1.349 1.426-4.095 3.554-11.805 7.199-23.784 1.375 0 0-.296.027-.802.077a121 121 0 0 1-23.192 13.099c-15.031 6.441-31.018 9.734-47.481 9.806l-.547.006c-16.422 0-32.363-3.217-47.39-9.546-14.499-6.115-27.546-14.873-38.743-26.019-11.191-11.155-20.01-24.157-26.197-38.636-6.395-15.001-9.679-30.942-9.76-47.369-.066-16.477 3.098-32.48 9.397-47.567a121.5 121.5 0 0 1 11.156-20.794c0-6.81.01-12.484.01-16.002 0-9.366 7.368-17.051 16.586-17.526 5.532-.369 9.586 2.04 11.667 3.68a121.5 121.5 0 0 1 25.261-14.611c15.041-6.432 31.013-9.734 47.487-9.807h.542c16.411 0 32.373 3.211 47.379 9.551 14.514 6.114 27.547 14.867 38.758 26.008C-15.358-122.417-6.55-109.426-.368-94.941c6.4 15 9.678 30.941 9.755 47.368C9.463-31.095 6.304-15.087 0 0" style="fill:#fff;fill-opacity:1;fill-rule:nonzero;stroke:none;stroke-width:1.22854" transform="matrix(1.0853 0 0 -1.0853 261.933 88.528)"/></g><g style="stroke-width:1.22854"><path d="m0 0 3.165 5.368-2.643 5.665 6.084-1.36 4.571 4.254.603-6.197 5.445-3.026Z" style="fill:#ef4136;fill-opacity:1;fill-rule:nonzero;stroke:none;stroke-width:1.22854" transform="matrix(1.0853 0 0 -1.0853 171.82 62.549)"/></g><g style="stroke-width:1.22854"><path d="m0 0 7.398-2.173-6.227-4.535.225-7.699-6.252 4.509-7.241-2.577 2.358 7.322-4.699 6.104 7.7.021 4.345 6.349z" style="fill:#ef4136;fill-opacity:1;fill-rule:nonzero;stroke:none;stroke-width:1.22854" transform="matrix(1.0853 0 0 -1.0853 158.376 45.437)"/></g><g style="stroke-width:1.22854"><path d="m0 0 8.574.185-5.066-6.913 2.827-8.108-8.145 2.689-6.84-5.195.041 8.584-7.051 4.894 8.171 2.612 2.468 8.216z" style="fill:#ef4136;fill-opacity:1;fill-rule:nonzero;stroke:none;stroke-width:1.22854" transform="matrix(1.0853 0 0 -1.0853 128.463 44.316)"/></g><g style="stroke-width:1.22854"><path d="m0 0 8.875 3.416L6.181-5.71l5.982-7.378-9.5-.256-5.168-7.975-3.176 8.957-9.187 2.454 7.531 5.793-.501 9.494z" style="fill:#ef4136;fill-opacity:1;fill-rule:nonzero;stroke:none;stroke-width:1.22854" transform="matrix(1.0853 0 0 -1.0853 96.575 54.293)"/></g><g style="stroke-width:1.22854"><path d="m0 0 8.614-5.005-27.649-7.424 5.2 8.948-4.019 9.11 9.668-2.341 7.423 6.636z" style="fill:#ef4136;fill-opacity:1;fill-rule:nonzero;stroke:none;stroke-width:1.22854" transform="matrix(1.0853 0 0 -1.0853 77.332 79.545)"/></g><g style="stroke-width:1.22854"><path d="m0 0-27.66-7.424" style="fill:#ef4136;fill-opacity:1;fill-rule:nonzero;stroke:none;stroke-width:1.22854" transform="matrix(1.0853 0 0 -1.0853 86.482 84.977)"/></g><g style="stroke-width:1.22854"><path d="M0 0v10.349c0 1.768-1.646.173-1.646.173s-8.758-6.646-18.845-8.037v11.329c0 .492.373 1.002.838 1.125l16.995 4.55c.991.277 1.62.947 1.62 1.77v7.724c0 .819-.613 1.171-1.62.896l-17-4.551c-.45-.133-.849.169-.833.67v10.123c0 .501.383 1.007.838 1.13l17.301 4.632c1.013.271 1.636.946 1.636 1.769v7.725c0 .823-.623 1.161-1.636.894l-28.354-7.596c-2.694-.727-3.154-1.759-3.154-3.804v-52.072c0-1.642.306-2.481 1.804-2.367v-.011s.22.041.623.092c2.148.307 9.694 1.554 17.481 4.647 4.11 1.642 8.84 3.943 12.306 6.744C-.767-1.432-.343-.92-.153-.563.046-.199 0 0 0 0" style="fill:#fff;fill-opacity:1;fill-rule:nonzero;stroke:none;stroke-width:1.22854" transform="matrix(1.0853 0 0 -1.0853 109.692 161.26)"/></g><g style="stroke-width:1.22854"><path d="m0 0-10.373-2.776c-1.1-.297-1.482-.86-1.482-2.138v-50.4c0-.266.086-1.416 1.247-1.048 0 0 4.601 3.425 10.399 3.093 0 0 1.702-.552 1.702 1.252v50.682C1.493-.046 1.109.302 0 0" style="fill:#fff;fill-opacity:1;fill-rule:nonzero;stroke:none;stroke-width:1.22854" transform="matrix(1.0853 0 0 -1.0853 129.029 97.855)"/></g><g style="stroke-width:1.22854"><path d="m0 0-4.693-1.247c-.455-.128-.844.179-.844.675v19.505c.025 1.283-.384 1.635-1.493 1.343l-10.359-2.775c-1.104-.302-1.498-.859-1.492-2.143v-50.952s-.067-1.518 1.247-1.099c0 0 4.597 3.425 10.395 3.088 0 0 1.702-.532 1.702 1.248v18.911c0 .506.389 1.008.844 1.13L0-11.059c.986.261 1.61.941 1.61 1.764v8.4C1.61-.071.986.271 0 0" style="fill:#fff;fill-opacity:1;fill-rule:nonzero;stroke:none;stroke-width:1.22854" transform="matrix(1.0853 0 0 -1.0853 204.553 101.662)"/></g><g style="stroke-width:1.22854"><path d="M0 0c0 .49.378.992.854 1.114l5.997 1.611c.465.128.834-.179.834-.675v-13.655c0-2.342-3.998-3.437-3.998-3.437-2.445-.664-3.355.169-3.687.768Zm18.094 33.928L9.192 31.55c-1.114-.291-1.507-.854-1.498-2.142l-.009-14.489c.009-.501-.369-1.003-.834-1.125L.854 12.178c-.476-.113-.854.184-.844.685L0 27.353c0 1.288-.394 1.635-1.493 1.339l-9.234-2.474c-1.099-.297-1.482-.86-1.482-2.148v-51.454s.209-2.525 5.849-2.555c2.413-.011 5.802.428 10.583 1.707 0 0 6.069 1.651 10.584 3.967 2.647 1.37 4.785 2.976 4.785 4.622v52.241c0 1.289-.404 1.636-1.498 1.33" style="fill:#fff;fill-opacity:1;fill-rule:nonzero;stroke:none;stroke-width:1.22854" transform="matrix(1.0853 0 0 -1.0853 157.334 122.652)"/></g><g style="stroke-width:1.22854"><path d="m0 0-10.618-2.853c-.394-.092-.629-.353-.629-.674v-2.342c0-.307.235-.445.629-.338l6.8 1.82c.183.041.327-.071.327-.265v-1.411c0-.195-.144-.394-.327-.44l-6.667-1.784c-.405-.108-.65-.374-.65-.691v-1.804c0-.322.245-.455.65-.354l5.848 1.575c.144.036.256-.02.312-.123.052-.112.031-.255-.056-.388-1.349-2.034-4.059-3.118-6.518-3.907-.261-.081-.348-.204-.348-.766v-2.265c0-.291.169-.439 1.048-.21 2.653.716 11.314 3.666 11.314 11.76v4.616C1.115-.071.957.245 0 0" style="fill:#fff;fill-opacity:1;fill-rule:nonzero;stroke:none;stroke-width:1.22854" transform="matrix(1.0853 0 0 -1.0853 193.583 153.204)"/></g><g style="stroke-width:1.22854"><path d="m0 0 16.81 4.499c.527.144.633.399.633.787v3.048c0 .46-.178.572-.633.449L4.396 5.46c-.183-.051-.322.072-.322.261v2.628c0 .189.139.383.322.424l12.414 3.324c.455.132.633.337.633.798v3.046c0 .46-.178.573-.633.455L0 11.887c-1.038-.282-1.207-.68-1.207-1.478V.818C-1.207.021-1.038-.286 0 0" style="fill:#fff;fill-opacity:1;fill-rule:nonzero;stroke:none;stroke-width:1.22854" transform="matrix(1.0853 0 0 -1.0853 74.902 197.76)"/></g><g style="stroke-width:1.22854"><path d="M0 0v4.008c0 .695-.645.071-.645.071S-3.993 1.411-8.063.981v4.111c0 .194.133.388.323.434l6.651 1.785c.547.148.792.47.792 1.022v10.932c0 .797-.168 1.093-1.222.822l-10.752-2.889c-.731-.193-.731-.521-.731-.705v-3.252c0-.183 0-.521.731-.322l6.729 1.8c.174.052.322-.072.322-.261v-3.88c0-.189-.148-.393-.322-.44l-6.493-1.733c-.931-.251-.967-.501-.967-1.406V-4.305c0-.593.103-.91.604-.921l.194.041s.107.011.281.021c.89.143 3.774.624 6.749 1.81 1.585.634 3.195 1.467 4.529 2.546.124.097.22.189.307.266C.03-.194 0 0 0 0" style="fill:#fff;fill-opacity:1;fill-rule:nonzero;stroke:none;stroke-width:1.22854" transform="matrix(1.0853 0 0 -1.0853 141.137 189.492)"/></g><g style="stroke-width:1.22854"><path d="m0 0-4.013-1.069c-.425-.113-.578-.337-.578-.838v-19.489s-.025-.588.481-.42c0 0 1.784 1.319 4.029 1.186 0 0 .664-.205.664.49V-.521C.583-.021.435.122 0 0" style="fill:#fff;fill-opacity:1;fill-rule:nonzero;stroke:none;stroke-width:1.22854" transform="matrix(1.0853 0 0 -1.0853 148.738 164.906)"/></g><g style="stroke-width:1.22854"><path d="M0 0v.547Z" style="fill:#fff;fill-opacity:1;fill-rule:nonzero;stroke:none;stroke-width:1.22854" transform="matrix(1.0853 0 0 -1.0853 176.97 176.808)"/></g><g style="stroke-width:1.22854"><path d="M0 0v2.147Z" style="fill:#fff;fill-opacity:1;fill-rule:nonzero;stroke:none;stroke-width:1.22854" transform="matrix(1.0853 0 0 -1.0853 176.97 179.138)"/></g><g style="stroke-width:1.22854"><path d="M0 0v.021Z" style="fill:#fff;fill-opacity:1;fill-rule:nonzero;stroke:none;stroke-width:1.22854" transform="matrix(1.0853 0 0 -1.0853 171.371 181.89)"/></g><g style="stroke-width:1.22854"><path d="M0 0v1.135z" style="fill:#fff;fill-opacity:1;fill-rule:nonzero;stroke:none;stroke-width:1.22854" transform="matrix(1.0853 0 0 -1.0853 176.97 180.509)"/></g><g style="stroke-width:1.22854"><path d="M0 0v.128Z" style="fill:#fff;fill-opacity:1;fill-rule:nonzero;stroke:none;stroke-width:1.22854" transform="matrix(1.0853 0 0 -1.0853 176.97 179.277)"/></g><g style="stroke-width:1.22854"><path d="m0 0-3.993-1.084c-.425-.123-.578-.327-.578-.828v-20.564c0-.096.026-.551.481-.409 0 0 1.789 1.33 4.028 1.197 0 0 .65-.195.65.486v20.67C.588-.031.444.102 0 0" style="fill:#fff;fill-opacity:1;fill-rule:nonzero;stroke:none;stroke-width:1.22854" transform="matrix(1.0853 0 0 -1.0853 176.332 157.498)"/></g><g style="stroke-width:1.22854"><path d="m0 0-1.794-.491c-.189-.041-.332.071-.332.265v7.547c0 .501-.148.623-.583.522l-4.014-1.074c-.434-.113-.578-.332-.578-.829v-19.724s-.019-.593.481-.43c0 0 1.779 1.33 4.029 1.197 0 0 .665-.205.665.481v7.331c0 .189.143.378.332.43L0-4.295c.395.112.629.378.629.695v3.242C.629-.031.395.102 0 0" style="fill:#fff;fill-opacity:1;fill-rule:nonzero;stroke:none;stroke-width:1.22854" transform="matrix(1.0853 0 0 -1.0853 122.831 181.147)"/></g><g style="stroke-width:1.22854"><path d="M0 0c-.016.189.143.384.316.435l2.286.613c.179.041.317-.071.317-.266v-12.229c-.179-.778-1.523-1.146-1.523-1.146-.885-.24-1.253.031-1.396.261Zm6.324 6.196-9.847-2.648c-1.033-.271-1.206-.669-1.206-1.462V-17.46c.086-.255.485-.884 2.234-.899.94 0 2.249.163 4.11.664 0 0 2.337.639 4.101 1.534.915.48 1.681 1.033 1.809 1.605V5.373c0 .798-.163 1.095-1.201.823" style="fill:#fff;fill-opacity:1;fill-rule:nonzero;stroke:none;stroke-width:1.22854" transform="matrix(1.0853 0 0 -1.0853 104.565 181.94)"/></g><g style="stroke-width:1.22854"><path d="m0 0-19.826-5.313c-.461-.117-.619-.322-.619-.791v-3.042c0-.456.158-.574.619-.446l6.799 1.821c.184.041.317-.077.317-.266 0 0 .011-4.039.016-4.07.061-.148.373-.603 2.167-.215.205.051.42.113.66.159.583.174 2.669.798 2.669 1.585l.014 4.018c0 .2.144.394.333.435L0-4.285c.471.123.629.333.629.788v3.042C.629.01.471.122 0 0" style="fill:#fff;fill-opacity:1;fill-rule:nonzero;stroke:none;stroke-width:1.22854" transform="matrix(1.0853 0 0 -1.0853 94.46 194.985)"/></g><g style="stroke-width:1.22854"><path d="m0 0-.373-.144C-.925-.389-1.37-.45-1.769-.379c0 0-.015 0-.015.011-.19.035-.358.101-.517.204a1.4 1.4 0 0 0-.342.286 2.5 2.5 0 0 0-.521.757c-.757 1.534-.706 3.895-.706 3.895v4.73c0 .199.153.384.317.434l2.832.757c.732.195.732.542.732.716v3.251c0 .18 0 .517-.732.328l-2.832-.777c-.164-.036-.317.082-.317.27v2.255c0 .563-.209.614-.588.522l-4.126-1.11c-.435-.107-.577-.332-.577-.823v-2.26a.47.47 0 0 0-.322-.434l-2.925-.782c-.716-.195-.716-.532-.726-.711l.01-3.246c0-.185 0-.517.716-.332l2.925.792c.173.036.322-.067.322-.266V5.879c0-.256 0-.501-.006-.746V3.358s.036-2.326-.705-4.263a5.5 5.5 0 0 0-.563-1.1c-.082-.117-.148-.235-.25-.348a.1.1 0 0 0-.036-.03 4 4 0 0 0-.297-.322l.026.005c-.092-.092-.195-.158-.276-.225a2.5 2.5 0 0 0-.45-.256 2.7 2.7 0 0 0-.976-.265h-.051l-.276-.046c-.492-.077-.492-.466-.492-.568.016-.01.016-.02.016-.02v-3.303c0-.532.496-.532.496-.532.471-.062.961.005 1.426.133A6.7 6.7 0 0 1-9.06-6.401c.18.132.333.265.481.409A10 10 0 0 1-7.02-3.979c.078.155.169.292.241.446a.43.43 0 0 0 .276.24c.107.03.22-.01.266-.103q.093-.12.194-.25a4.3 4.3 0 0 1 1.601-1.227c.061-.025.107-.046.148-.056.731-.292 1.682-.429 2.848-.143.475.123.956.322 1.425.634 0 0 .522.271.522.802v3.303S.563.193 0 0" style="fill:#fff;fill-opacity:1;fill-rule:nonzero;stroke:none;stroke-width:1.22854" transform="matrix(1.0853 0 0 -1.0853 168.73 179.005)"/></g><g style="stroke-width:1.22854"><path d="M0 0s.005.721 0 1.56v1.052c.005.614 0 1.161 0 1.402 0 .684-.634.071-.634.071a19 19 0 0 0-4.448-2.838A21 21 0 0 0-8.012.163c-.428-.128-.817-.214-1.176-.307a39 39 0 0 0-1.528-.281 26 26 0 0 0-1.289-.138c-.46-.03-.623.087-.689.21a.4.4 0 0 0 0 .282v2.336c0 .501-.159.633-.578.516l-4.162-1.109c-.434-.112-.578-.332-.578-.839v-5.43c0-1.318 3.14-1.063 5.803-.623l.005.031s.348.03.931.143a43 43 0 0 1 2.117.444c.25.057.434.103.515.128.384.092.768.204 1.171.328 2.245.665 4.842 1.722 6.836 3.338C.057-.286 0 0 0 0" style="fill:#fff;fill-opacity:1;fill-rule:nonzero;stroke:none;stroke-width:1.22854" transform="matrix(1.0853 0 0 -1.0853 203.476 174.683)"/></g><g style="stroke-width:1.22854"><path d="m0 0-4.137-1.104c-.428-.113-.577-.338-.577-.839v-13.855c0-.757.22-1.131.577-1.278.583-.231 1.519.179 2.399.643.26.139.51.272.741.405 1.564.853 1.564 1.651 1.564 1.651V-.512C.567.051.362.103 0 0" style="fill:#fff;fill-opacity:1;fill-rule:nonzero;stroke:none;stroke-width:1.22854" transform="matrix(1.0853 0 0 -1.0853 202.523 150.496)"/></g><g style="stroke-width:1.22854"><path d="M0 0c-1.703-4.488-4.474-8.477-8.268-11.963 3.129-6.678 7.833-19.285 2.459-32.118-1.482-3.543-3.639-6.697-6.467-9.489 2.06-4.274 5.164-12.827 1.472-22.413-4.012-10.466-15.056-17.614-32.526-22.282l-114.876-30.655c-1.82-.695-11.555-3.559-18.119-9.78v.01a.8.8 0 0 0-.149-.159 6.02 6.02 0 0 0-4.258-1.769 6.025 6.025 0 0 0-6.018 6.023c-.011 17.076-.098 84.512-.082 87.559-.117 2.515-.588 25.073 23.933 31.627l127.279 34.03c7.479 1.999 14.551 4.447 18.272 7.066 2.869 2.218 4.97 4.243 6.089 7.167.006.016.006.021.021.031.333.777.736 2.638 2.955 2.74 1.273.057 2.49-.541 4.162-3.343 2.725-4.525 5.409-10.65 5.869-17.638C2.214 10.088 1.901 5.052 0 0m6.437 15.042C5.695 25.758.476 34.582-3.421 39.634c-3.364 4.263-5.967 4.723-8.579 3.901-2.914-.926-3.195-4.484-3.687-7.025a3 3 0 0 1-.045-.261c0-.01 0-.01-.015-.03a4 4 0 0 0-.107-.455v-.011c-.675-2.602-2.164-4.376-3.202-5.343a38 38 0 0 0-1.124-.899c-1.657-1.146-5.962-3.441-16.632-6.299l-127.366-34.05c-27.649-7.408-27.551-32.695-27.398-36.295 0 0 .046-70.109.071-87.462 0-5.956 4.796-10.808 10.752-10.808 4.351-.072 7.69 3.307 7.69 3.307v-.014c5.077 4.81 12.725 7.489 15.496 8.435.296.112 115.484 30.84 115.484 30.84 19.51 5.235 31.178 13.456 35.677 25.154 3.42 8.907 1.993 17.132-.323 23.17a33.7 33.7 0 0 1 5.256 8.59c4.136 9.888 3.727 20.936-1.191 32.904C.476-9.611 2.837-5.803 4.401-1.666 6.339 3.508 7.04 9.121 6.437 15.042" style="fill:#ef4136;fill-opacity:1;fill-rule:nonzero;stroke:none;stroke-width:1.22854" transform="matrix(1.0853 0 0 -1.0853 244.582 84.49)"/></g><g style="stroke-width:1.22854"><path d="m0 0-2.285-.613c-.174-.051-.332-.245-.317-.435V-13.38c.143-.229.511-.501 1.396-.261 0 0 1.345.369 1.523 1.146V-.266C.317-.071.18.041 0 0" style="fill:#ef4136;fill-opacity:1;fill-rule:nonzero;stroke:none;stroke-width:1.22854" transform="matrix(1.0853 0 0 -1.0853 107.389 180.803)"/></g><g style="stroke-width:1.22854"><path d="M0 0c0-.823-.624-1.503-1.61-1.764l-4.694-1.257c-.455-.123-.843-.625-.843-1.13v-18.912c0-1.779-1.703-1.248-1.703-1.248-5.797.338-10.394-3.087-10.394-3.087-1.315-.419-1.247 1.099-1.247 1.099v50.952c-.006 1.284.387 1.841 1.492 2.143l10.358 2.775c1.11.292 1.519-.06 1.494-1.343V8.723c0-.496.388-.803.843-.675l4.694 1.247C-.624 9.566 0 9.224 0 8.4Zm-8.195-48.749v11.104c0 .501.148.727.577.839l4.137 1.105c.362.102.567.051.567-.512v-13.865s0-.798-1.565-1.651c-.23-.133-.48-.266-.741-.405-.88-.465-1.815-.874-2.398-.643-.358.147-.577.521-.577 1.278zm4.959-10.046c-1.994-1.616-4.591-2.674-6.836-3.339a20 20 0 0 0-1.171-.327 42.464 42.464 0 0 0-2.633-.572 10 10 0 0 0-.931-.144l-.005-.03c-2.663-.44-5.802-.695-5.802.623v5.43c0 .507.143.726.578.839l4.161 1.109c.42.117.578-.016.578-.517v-2.336s-.061-.148 0-.281c.067-.123.23-.24.69-.21.21.016.665.057 1.289.138.439.072.956.164 1.528.281.358.093.747.179 1.176.307.9.261 1.891.608 2.929 1.084a19 19 0 0 1 4.449 2.838s.633.613.633-.072c0-.24.005-.788 0-1.401v-1.053c.005-.839 0-1.559 0-1.559s.057-.286-.633-.808m-19.73 3.589v2.265c0 .562.087.685.348.766 2.459.788 5.169 1.872 6.518 3.906.087.133.108.277.056.389-.056.103-.168.158-.311.123l-5.849-1.575c-.404-.102-.65.031-.65.353v1.805c0 .317.246.583.65.691l6.667 1.784c.183.046.327.245.327.439v1.411c0 .195-.144.307-.327.266l-6.8-1.82c-.393-.108-.629.031-.629.338v2.341c0 .322.236.582.629.675l10.618 2.853c.957.245 1.115-.072 1.115-.844v-4.616c0-8.094-8.661-11.044-11.314-11.76-.879-.23-1.048-.081-1.048.21m-2.561 25.518c0-1.647-2.138-3.252-4.786-4.623-4.514-2.316-10.583-3.967-10.583-3.967-4.781-1.279-8.17-1.718-10.583-1.707-5.64.03-5.849 2.555-5.849 2.555v51.454c0 1.289.383 1.851 1.482 2.148l9.234 2.474c1.099.296 1.493-.051 1.493-1.339l.01-14.49c-.01-.501.368-.797.843-.685l5.997 1.616c.466.122.844.624.834 1.125l.01 14.489c-.01 1.288.384 1.851 1.498 2.142l8.902 2.378c1.093.306 1.498-.041 1.498-1.33zm-1.498-29.71v-3.957c0-.681-.65-.487-.65-.487-2.239.134-4.028-1.196-4.028-1.196-.455-.143-.482.312-.482.409v20.564c0 .501.154.705.579.828l3.993 1.084c.444.101.588-.032.588-.533zm-7.092-2.905v-3.302c0-.532-.522-.803-.522-.803a4.7 4.7 0 0 0-1.425-.634c-1.166-.286-2.118-.148-2.848.144-.041.009-.087.03-.149.055a4.3 4.3 0 0 0-1.6 1.228q-.102.13-.194.25c-.046.093-.159.133-.266.102a.43.43 0 0 1-.276-.24c-.072-.153-.164-.291-.241-.445a10 10 0 0 0-1.559-2.014 5 5 0 0 0-.481-.409c-.675-.578-1.498-1.089-2.515-1.381-.465-.128-.955-.194-1.426-.133 0 0-.496 0-.496.532v3.303s0 .01-.016.021c0 .101 0 .49.491.567l.277.046h.046c.362.03.69.123.981.266.143.061.291.143.45.255.081.067.184.133.276.225l-.026-.005c.108.108.205.21.297.322.015.01.03.021.036.031.102.112.168.23.25.347.231.333.409.716.563 1.1.741 1.937.705 4.264.705 4.264v1.774c.006.245.006.49.006.746v2.209c0 .199-.149.302-.323.266l-2.924-.792c-.716-.185-.716.147-.716.332l-.01 3.246c.01.18.01.517.726.711l2.924.782a.47.47 0 0 1 .323.435v2.259c0 .492.142.716.577.824l4.126 1.109c.379.092.588.041.588-.521v-2.255c0-.189.153-.307.317-.271l2.832.778c.732.188.732-.149.732-.329v-3.251c0-.173 0-.521-.732-.715l-2.832-.757a.48.48 0 0 1-.317-.435v-4.729s-.051-2.362.706-3.896c.133-.286.306-.552.521-.757q.16-.181.342-.286a1.4 1.4 0 0 1 .517-.204v-.011c.414-.071.859-.009 1.411.236l.373.143c.562.194.501-.333.501-.333m-18.339-5.946v-.869c0-.695-.664-.49-.664-.49-2.245.132-4.029-1.187-4.029-1.187-.506-.168-.481.42-.481.42v19.489c0 .501.153.726.578.838l4.013 1.069c.435.123.583-.02.583-.521zm-7.587-3.384s.03-.194-.338-.542c-.087-.077-.183-.169-.307-.265-1.333-1.08-2.944-1.913-4.529-2.547-2.975-1.186-5.859-1.666-6.749-1.81-.174-.01-.281-.02-.281-.02l-.194-.041c-.501.01-.604.327-.604.92v11.304c0 .905.036 1.155.967 1.406l6.493 1.733c.174.047.322.251.322.44v3.88c0 .19-.148.313-.322.261l-6.728-1.8c-.732-.199-.732.139-.732.322v3.252c0 .184 0 .512.732.705l10.751 2.889c1.054.272 1.222-.025 1.222-.822V-63.3c0-.552-.245-.874-.792-1.022l-6.651-1.784c-.19-.046-.322-.241-.322-.435v-4.11c4.069.429 7.417 3.097 7.417 3.097s.645.624.645-.071v-1.922zm-16.238 4.09c0-.317-.235-.583-.629-.695l-1.794-.481a.46.46 0 0 1-.332-.429v-7.331c0-.686-.665-.481-.665-.481-2.25.133-4.029-1.197-4.029-1.197-.5-.163-.481.429-.481.429v19.725c0 .496.144.716.578.828l4.014 1.074c.434.102.583-.02.583-.521v-7.547c0-.194.142-.307.332-.266l1.794.492c.394.101.629-.032.629-.359zM-86.215-79.2v-.03c-.128-.573-.894-1.125-1.809-1.606-1.764-.894-4.101-1.534-4.101-1.534-1.861-.501-3.17-.664-4.11-.664-1.749.015-2.148.644-2.235.899v19.546c0 .793.174 1.192 1.206 1.462l9.848 2.648c1.038.272 1.201-.025 1.201-.823zm-16.207-.991c0-.455-.158-.665-.629-.788l-6.85-1.84c-.19-.041-.333-.236-.333-.435l-.015-4.018c0-.788-2.086-1.412-2.669-1.585-.24-.046-.455-.108-.66-.16-1.794-.387-2.106.068-2.167.215-.005.031-.016 4.071-.016 4.071 0 .189-.133.306-.317.265l-6.799-1.82c-.461-.128-.619-.01-.619.445v3.042c0 .47.158.675.619.792l19.826 5.313c.471.122.629.009.629-.455zm-14.254 6.4 12.413 3.323c.455.123.634.011.634-.449v-3.048c0-.388-.106-.643-.634-.787l-16.809-4.499c-1.038-.286-1.207.021-1.207.818v9.591c0 .798.169 1.196 1.207 1.478l16.809 4.51c.455.117.634.004.634-.456v-3.046c0-.461-.179-.665-.634-.798l-12.413-3.324c-.183-.041-.322-.235-.322-.424v-2.628c0-.189.139-.312.322-.261m-6.201 69.042c0 2.045.46 3.077 3.154 3.804l28.355 7.596c1.013.267 1.636-.071 1.636-.894v-7.725c0-.823-.623-1.498-1.636-1.769l-17.302-4.632c-.455-.123-.838-.629-.838-1.13v-10.123c-.015-.501.383-.803.833-.67l17 4.551c1.007.275 1.62-.077 1.62-.896v-7.724c0-.824-.629-1.493-1.62-1.77l-16.995-4.55c-.465-.123-.838-.633-.838-1.125v-11.329c10.087 1.391 18.845 8.037 18.845 8.037s1.646 1.595 1.646-.173V-45.62s.046-.199-.153-.563c-.189-.357-.613-.869-1.493-1.533-3.466-2.802-8.195-5.102-12.306-6.744-7.787-3.093-15.333-4.34-17.48-4.647-.404-.051-.618-.092-.618-.092l-.005.011c-1.498-.114-1.805.725-1.805 2.367zm39.822-37.722v50.36c0 1.278.383 1.84 1.483 2.137l10.373 2.777c1.109.301 1.493-.046 1.493-1.335v-50.682c0-1.805-1.702-1.252-1.702-1.252-5.798.332-10.4-3.094-10.4-3.094-1.16-.368-1.247.783-1.247 1.048zM27.348 50.038c-1.857.296-3.421-1.283-3.421-1.283l-.015.005c-4.162-3.57-11.33-6.77-22.956-9.883L-126.328 4.842c-21.817-5.839-20.257-25.696-20.175-26.514v-.174l.107-86.219c-.01-.665.312-1.325.936-1.565.849-.328 1.601-.072 1.892.215 7.117 6.942 17.633 10.03 19.177 10.439L-9.352-68.279C6.422-64.066 16.305-57.972 19.75-49.117c1.999 5.189 1.892 10.635-.618 16.744-.19.476-.599.844-1.084.997a1.75 1.75 0 0 1-1.484-.22s-.725-.486-1.906-1.171c0 0-1.294-.869-4.197-2.142-.568-.199-2.378-.414-3.068 1.089-1.079 2.373 1.237 3.416 1.237 3.416a44 44 0 0 1 3.768 1.819.2.2 0 0 0 .051.021c6.411 3.528 10.4 6.79 12.557 11.938 2.98 7.102 2.986 14.99-1.35 24.862a1.7 1.7 0 0 1-1.15.993 1.78 1.78 0 0 1-1.493-.302c-.031-.031-2.592-1.794-6.442-3.114l-.041-.01c-.205-.061-.409-.133-.624-.195-.869-.183-2.264-.122-2.884.942-1.375 2.356 1.31 3.532 1.31 3.532h-.006c.195.077.384.148.542.22 9.331 4.356 15.118 9.797 17.68 16.606 2.705 7.148 1.263 14.745-.654 20.42-.552 1.554-1.263 2.505-2.546 2.71" style="fill:#ef4136;fill-opacity:1;fill-rule:nonzero;stroke:none;stroke-width:1.22854" transform="matrix(1.0853 0 0 -1.0853 206.3 111.75)"/></g><g style="stroke-width:1.22854"><path d="m0 0-5.997-1.61c-.476-.122-.854-.624-.854-1.115v-14.274c.332-.599 1.243-1.432 3.687-.768 0 0 3.998 1.095 3.998 3.437V-.675C.834-.179.466.128 0 0" style="fill:#ef4136;fill-opacity:1;fill-rule:nonzero;stroke:none;stroke-width:1.22854" transform="matrix(1.0853 0 0 -1.0853 164.768 119.695)"/></g><g style="stroke-width:1.22854"><path d="M0 0c-6.299-5.583-13.354-10.133-20.773-13.783a99 99 0 0 0-23.283-8.073 93.7 93.7 0 0 0-24.372-1.887c-8.144.45-16.309 2.004-23.855 5.317a2.37 2.37 0 0 0-1.207 3.118 2.354 2.354 0 0 0 2.934 1.274h.021c7.076-2.5 14.668-3.379 22.215-3.226a86.4 86.4 0 0 1 22.291 3.42 90.3 90.3 0 0 1 20.522 8.881C-19.096-1.171-13.16 3.354-8.078 8.579a5.906 5.906 0 0 0 8.344.117A5.886 5.886 0 0 0 .378.358 10 10 0 0 1 .076.057Z" style="fill:#ef4136;fill-opacity:1;fill-rule:nonzero;stroke:none;stroke-width:1.22854" transform="matrix(1.0853 0 0 -1.0853 203.138 215.416)"/></g><g style="stroke-width:1.22854"><path d="M0 0s-2.685-1.176-1.31-3.532c.62-1.064 2.015-1.125 2.884-.942.215.062.419.134.624.195l.026.01c3.865 1.32 6.426 3.083 6.457 3.114.429.317.981.434 1.493.301a1.7 1.7 0 0 0 1.15-.992c4.336-9.872 4.33-17.76 1.35-24.862-2.157-5.148-6.146-8.41-12.557-11.938a.2.2 0 0 1-.051-.021 44 44 0 0 0-3.768-1.819s-2.316-1.043-1.237-3.416c.69-1.503 2.5-1.288 3.068-1.089 2.903 1.273 4.197 2.142 4.197 2.142 1.181.685 1.906 1.171 1.906 1.171.436.291.977.373 1.484.22a1.74 1.74 0 0 0 1.084-.997c2.51-6.109 2.617-11.555.618-16.744C3.973-68.054-5.91-74.148-21.684-78.361l-115.039-30.697c-1.544-.409-12.06-3.497-19.177-10.439-.291-.287-1.043-.543-1.892-.215-.624.24-.946.899-.936 1.565l-.107 86.219v.174c-.082.817-1.642 20.675 20.175 26.514l127.284 34.035C.25 31.908 7.418 35.108 11.58 38.678l.015-.005s1.564 1.579 3.421 1.283c1.283-.205 1.994-1.156 2.546-2.71 1.917-5.675 3.359-13.272.654-20.42C15.654 10.017 9.867 4.576.536.22.378.148.188.077-.006 0Zm22.94 15.036c1.902 5.052 2.214 10.088 1.748 14.644-.459 6.988-3.144 13.113-5.869 17.638-1.672 2.802-2.888 3.4-4.162 3.343-2.219-.101-2.622-1.963-2.955-2.74-.014-.01-.014-.015-.02-.03-1.119-2.925-3.221-4.95-6.089-7.168C1.871 38.104-5.2 35.656-12.68 33.657L-139.959-.373c-24.52-6.554-24.05-29.111-23.933-31.627-.015-3.047.072-70.482.082-87.559a6.026 6.026 0 0 1 6.018-6.023 6.03 6.03 0 0 1 4.259 1.769.8.8 0 0 1 .148.159v-.01c6.565 6.222 16.299 9.085 18.119 9.78L-20.39-83.229c17.47 4.668 28.514 11.816 32.527 22.282 3.691 9.586.588 18.139-1.473 22.413 2.828 2.792 4.985 5.946 6.468 9.489 5.374 12.833.67 25.441-2.459 32.118 3.794 3.487 6.564 7.475 8.267 11.963" style="fill:#fff450;fill-opacity:1;fill-rule:nonzero;stroke:none;stroke-width:1.22854" transform="matrix(1.0853 0 0 -1.0853 219.685 100.808)"/></g><g style="stroke-width:1.22854"><path d="M0 0c22.516-.092 43.304-7.398 60.201-19.704v.005l.424-.312a6.09 6.09 0 0 1 5.159-.747c.261.092 4.78 1.907 6.043 2.649 3.441 1.912 1.192 3.696.4 4.468A115 115 0 0 1 44.904 2.883C30.696 8.968 15.624 12.086.066 12.137l-.516.006c-15.507 0-30.564-3.022-44.751-9.004-13.712-5.778-26.028-14.049-36.597-24.577-10.583-10.537-18.901-22.812-24.745-36.489-6.053-14.167-9.151-29.223-9.218-44.746-.061-13.737 2.265-27.127 6.907-39.868.92-2.362 1.749-3.804 3.512-3.426 1.575.359 1.708 3.048 1.729 3.769v40.078-.021C-103.051-45.574-57.027.01-.45.01-.313.01-.148.01 0 0" style="fill:#ef4136;fill-opacity:1;fill-rule:nonzero;stroke:none;stroke-width:1.22854" transform="matrix(1.0853 0 0 -1.0853 140.094 27.17)"/></g><g style="stroke-width:1.22854"><path d="M0 0c-.057.138-.384 1.053-.512 1.355-1.728 4.095-3.353.68-3.353.68S-4.679.69-5.107.031c0 0-1.498-2.383-.773-5.491.128-.404.588-2.024.624-2.301 1.917-7.843 3.978-25.026-2.812-53.892-.133-.558-.501-2.102-.563-2.337v.02c-11.293-44.765-51.816-77.87-100.028-77.87-.154 0-.313 0-.455.01-17.997.077-34.884 4.766-49.563 12.92v-.011s-3.793 2.158-6.886 1.028c-.456-.123-4.678-1.488-6.34-2.213-.163-.082-4.448-1.677-.792-4.469a114 114 0 0 1 18.676-10.133c14.198-6.084 29.281-9.203 44.848-9.265h.512c15.501 0 30.573 3.028 44.756 9.009 13.702 5.777 26.023 14.05 36.596 24.587C-16.739-109.851-8.396-97.58-2.566-83.903 3.477-69.727 6.58-54.68 6.646-39.163 6.702-25.676 4.463-12.531 0 0" style="fill:#ef4136;fill-opacity:1;fill-rule:nonzero;stroke:none;stroke-width:1.22854" transform="matrix(1.0853 0 0 -1.0853 257.55 97.184)"/></g></g><g style="stroke-width:1.07309"><g style="stroke-width:1.07309"><path d="M0 0c-1.815 1.278-4.504 3.722-5.619 7.265-1.743-3.016-6.105-6.59-9.305-7.94l-2.924 3.39c5.25 1.989 9.847 5.956 11.232 11.958l.22.956h-6.616l1.043 4.417H6.457l-.997-4.417h-6.559l-.225-.956C-2.623 9.049.797 5.721 4.003 3.568Zm-7.5 22.608.976 4.136H3.982l-.95-4.136ZM5.021-5.588l7.653 33.171h4.816L9.842-5.588Z" style="fill:#231f20;fill-opacity:1;fill-rule:nonzero;stroke:none;stroke-width:1.07309" transform="matrix(1.24251 0 0 -1.24251 382.739 70.341)"/></g><g style="stroke-width:1.07309"><path d="m0 0 2.367 10.241h4.831l-1.37-5.905h19.203L24.029 0Zm-.23 10.926-2.081 3.344c3.052.986 8.292 3.205 11.289 6.073-1.882-.224-5.594-.408-8.702-.408l.854 3.691c3.854 0 7.449-.036 10.935.261a16.6 16.6 0 0 1 1.351 2.571H2.505l.961 4.105h16.555C17.475 19.479 7.75 13.15-.23 10.926m20.568-2.454 5.527 23.937h4.831L25.154 8.472Z" style="fill:#231f20;fill-opacity:1;fill-rule:nonzero;stroke:none;stroke-width:1.07309" transform="matrix(1.24251 0 0 -1.24251 408.663 76.338)"/></g><g style="stroke-width:1.07309"><path d="M0 0c-4.183-.153-10.507-.082-10.834-.082l1.018 4.417c.439 0 8.778-.081 13.185.113 2.976.117 7.653.716 9.898 1.063l-.951-4.126C9.627.828 4.801.194 0 0m4.627 20.875c-2.874 0-5.031-1.958-5.593-4.376-.542-2.409.674-4.438 3.558-4.438 2.95 0 5.082 1.994 5.644 4.407.553 2.413-.654 4.407-3.609 4.407M1.625 7.843c-5.496 0-8.43 3.916-7.326 8.656 1.064 4.708 5.828 8.594 11.299 8.594 5.491 0 8.482-3.886 7.383-8.594-1.094-4.74-5.885-8.656-11.356-8.656M11.672-6.263l7.648 33.171h4.786L16.468-6.263Z" style="fill:#231f20;fill-opacity:1;fill-rule:nonzero;stroke:none;stroke-width:1.07309" transform="matrix(1.24251 0 0 -1.24251 459.083 69.503)"/></g><g style="stroke-width:1.07309"><path d="m0 0 2.04 8.768h18.068l.389 1.672H2.413l.864 3.763h23.319L24.571 5.43H6.488l-.404-1.677h18.901L24.106 0Zm13.349 23.365H6.478l-.747-3.206h6.882zM24.3 24.602h-5.91l-.506-2.229h5.91zm-2.091-9.167.685 3.078H17l-.573-2.515H.025l3.59 15.619h4.754l-.935-4.08H14.3l.956 4.08h4.76l-.706-3.129h5.895l.987 4.294h4.816L27.02 15.435Z" style="fill:#231f20;fill-opacity:1;fill-rule:nonzero;stroke:none;stroke-width:1.07309" transform="matrix(1.24251 0 0 -1.24251 508.277 76.802)"/></g><g style="stroke-width:1.07309"><path d="M0 0c-2.705 0-5.317-3.998-6.248-8.058-.971-4.182-.194-8.149 2.506-8.149s5.235 3.916 6.196 8.149C3.41-3.957 2.689 0 0 0m-4.816-20.655c-5.542 0-7.904 5.015-6.166 12.556C-9.244-.526-4.576 4.443.997 4.443c5.547 0 7.899-5.047 6.176-12.542C5.455-15.547.741-20.655-4.816-20.655m12.505-5.844 7.649 33.171h4.786l-7.639-33.171z" style="fill:#231f20;fill-opacity:1;fill-rule:nonzero;stroke:none;stroke-width:1.07309" transform="matrix(1.24251 0 0 -1.24251 564.465 44.36)"/></g><g style="stroke-width:1.07309"><path d="M0 0h-6.222l5.195 22.521h15.562l-.981-4.289H2.817L-.373 4.397h3.778c3.175.041 9.913.869 10.052.905l-.998-4.259C12.312 1.043 5.946 0 0 0m21.202 8.472-3.599-15.65h-4.806l7.654 33.171h4.79l-2.98-12.955h4.279l-1.033-4.566Z" style="fill:#231f20;fill-opacity:1;fill-rule:nonzero;stroke:none;stroke-width:1.07309" transform="matrix(1.24251 0 0 -1.24251 614.047 68.366)"/></g><g style="stroke-width:1.07309"><path d="M0 0c-3.39.639-7.848 3.369-8.973 6.713C-11.499 3.625-16.407.869-21.269-.22l-1.953 3.589c6.861 1.278 11.856 4.995 12.787 9.024l.174.731h5.496l-.159-.731C-6.038 7.587-1.11 4.949 3.604 3.625Zm-6.304 14.699c-2.424 1.206-5.041 3.359-6.299 6.303-2.229-2.944-5.624-5.403-9.008-7.06l-2.669 3.441c4.652 1.891 9.765 6.365 10.706 10.466l1.063 4.586h5.164l-1.074-4.586c-.961-4.101 2.383-8.211 5.869-9.459zm5.337-4.106 2.853 12.245h-6.201l1.007 4.417h6.206l1.299 5.65h4.826L3.88 10.593Z" style="fill:#231f20;fill-opacity:1;fill-rule:nonzero;stroke:none;stroke-width:1.07309" transform="matrix(1.24251 0 0 -1.24251 679.008 76.954)"/></g><g style="stroke-width:1.07309"><path d="m0 0-2.991 2.669C3.563 6.36 9.131 13.339 10.645 19.893H2.976l.981 4.295h12.915C14.31 13.155 8.492 5.036 0 0m20.083-5.287 3.686 15.988h-2.634L17.802-3.778h-4.606l7.116 30.89h4.607l-2.684-11.626h2.628l2.852 12.398h4.673L24.725-5.287Z" style="fill:#231f20;fill-opacity:1;fill-rule:nonzero;stroke:none;stroke-width:1.07309" transform="matrix(1.24251 0 0 -1.24251 708.852 70.716)"/></g><g style="stroke-width:1.07309"><path d="M0 0c-2.827 0-4.279.409-5.036 1.365-.44.604-.542 1.345-.297 2.219l2.598 9.791c.654 2.49 1.329 3.696 3.435 3.773 11.299.568 23.938 2.081 31.852 9.136a.85.85 0 0 1 .297.517H5.752c-1.713 0-2.587.654-2.996 1.206-.496.66-.65 1.529-.404 2.47l2.09 7.848c.507 1.927 2.266 3.098 4.597 3.098h30.783c.343 0 .737.327.824.665l1.641 6.15c.015.031.015.061.015.072H10.91c-1.733 0-2.597.674-3.001 1.216-.501.67-.654 1.539-.398 2.475l2.688 10.139c.491 1.912 2.271 3.077 4.581 3.077h48.98c2.433 0 3.895-.465 4.714-1.544.981-1.283.679-3.093.219-4.852l-5.327-20.062C53.826 2.802 12.459 0 0 0" style="fill:#ef4136;fill-opacity:1;fill-rule:nonzero;stroke:none;stroke-width:1.07309" transform="matrix(1.24251 0 0 -1.24251 1174.874 186.3)"/></g><g style="stroke-width:1.07309"><path d="M0 0c-2.741 0-4.29.476-5.148 1.6-.977 1.289-.691 3.083-.231 4.817L5.685 48.11c1.012 3.778 2.582 5.813 8.027 5.813h77.523c1.028 0 2.286-.117 3.017-1.069.71-.935.485-2.208.26-3.062L91.01 36.586c-.655-2.484-2.08-3.543-4.708-3.543H29.091c-.322 0-.737-.348-.818-.68l-3.017-11.396c-.02-.026-.02-.051-.02-.061h57.231c1.022 0 2.28-.138 3.006-1.094.726-.936.481-2.184.292-3.053L82.242 3.538C81.776 1.794 80.852 0 77.528 0Z" style="fill:#ef4136;fill-opacity:1;fill-rule:nonzero;stroke:none;stroke-width:1.07309" transform="matrix(1.24251 0 0 -1.24251 626.593 171.556)"/></g><g style="stroke-width:1.07309"><path d="M0 0c-7.812 0-13.973.644-16.263.9-.307.051-1.064.133-1.186.159v.004c-1.309.267-2.194.803-2.7 1.637-.792 1.267-.491 2.939-.066 4.57L3.037 94.875c.997 3.779 2.572 5.809 8.002 5.809H61.7c1.722 0 2.597-.655 3.011-1.192.506-.669.639-1.544.393-2.479l-3.44-12.976c-.496-1.907-2.27-3.099-4.601-3.099H26.157c-.323 0-.716-.327-.803-.669l-4.525-17.025c-.005-.046-.005-.067-.02-.087h30.395c1.717 0 2.566-.665 2.985-1.192.511-.679.639-1.544.399-2.479L51.142 46.5c-.501-1.872-2.29-3.083-4.591-3.083H16.192c-.312 0-.726-.333-.808-.685L10.66 24.976a52 52 0 0 1 5.507-.271c14.013 0 26.657 4.964 27.577 5.352.342.164 1.447.716 2.428.716.911 0 1.37-.47 1.58-.726.44-.578.537-1.355.251-2.372-.271-.997-4.366-16.406-4.607-17.388-.061-.271-.245-.783-.813-1.381-.736-.782-1.922-1.523-3.563-2.188-7.603-3.4-17.133-5.072-23.81-5.864C10.425.292 5.297 0 0 0" style="fill:#ef4136;fill-opacity:1;fill-rule:nonzero;stroke:none;stroke-width:1.07309" transform="matrix(1.24251 0 0 -1.24251 345.741 230.368)"/></g><g style="stroke-width:1.07309"><path d="M0 0c-7.715 0-13.82.634-16.06.895-.837.087-1.297.148-1.297.148l-.972.154-.082.01c-3.6 1.001-2.699 4.432-2.27 6.084l13.027 49.071c1.134 4.32 1.994 5.834 6.907 5.834h29.904c.307 0 .705.322.803.659l4.474 16.861c.009.026.009.067.02.082H3.39c-1.78 0-2.925.389-3.538 1.207-.716.92-.43 1.978-.307 2.474l3.758 14.127c.383 1.436 1.272 3.078 5.035 3.078h49.665c2.75 0 4.268-.466 5.143-1.601.982-1.288.674-3.067.214-4.795L50.763 46.776c-.777-2.92-2.638-4.346-5.716-4.346H14.366c-.338 0-.72-.322-.833-.659L9.146 25.16c2.229-.318 4.571-.44 6.963-.44 13.83 0 25.809 4.959 26.627 5.327.327.169 1.411.726 2.413.726.915 0 1.391-.47 1.601-.726.429-.578.516-1.355.255-2.372l-4.621-17.362c-.098-.517-.542-1.581-2.568-2.721a14.5 14.5 0 0 0-1.804-.874C31.724 3.891 24.064 1.917 15.307.875 10.49.302 5.342 0 0 0" style="fill:#ef4136;fill-opacity:1;fill-rule:nonzero;stroke:none;stroke-width:1.07309" transform="matrix(1.24251 0 0 -1.24251 900.47 230.368)"/></g><g style="stroke-width:1.07309"><path d="M0 0c-1.155 0-1.799.506-2.137.946-.746.976-.542 2.275-.419 2.797a.4.4 0 0 1 .046.127l22.49 84.666c.675 2.648 2.035 3.768 4.53 3.768h18.498c.848 0 2.065-.102 2.761-1.038.731-.956.506-2.265.225-3.313L23.386 2.705C22.741.312 21.085.046 20.41.046c-.905 0-1.682.368-1.994.557-2.423.793-5.046 1.191-7.802 1.191C4.959 1.794.634.102.588.082L.414.01.235.005C.148.005.082 0 0 0" style="fill:#ef4136;fill-opacity:1;fill-rule:nonzero;stroke:none;stroke-width:1.07309" transform="matrix(1.24251 0 0 -1.24251 414.126 218.387)"/></g><g style="stroke-width:1.07309"><path d="M0 0c-1.202 0-1.856.532-2.193.997-.819 1.145-.364 2.71-.328 2.894L2.111 21.32l17.843 67.216c.706 2.648 2.045 3.768 4.53 3.768h18.518c.839 0 2.045-.102 2.751-1.038.736-.956.521-2.265.235-3.313L23.359 2.705C22.721.312 21.074.046 20.384.046c-.874 0-1.656.368-1.984.557-2.423.793-5.061 1.191-7.817 1.191C4.923 1.794.613.102.577.082L.398.01.199.005C.133.005.071 0 0 0" style="fill:#ef4136;fill-opacity:1;fill-rule:nonzero;stroke:none;stroke-width:1.07309" transform="matrix(1.24251 0 0 -1.24251 968.303 218.387)"/></g><g style="stroke-width:1.07309"><path d="M0 0c1.974 0 2.454-.767 1.902-2.93l-21.652-81.5c-.24-.971-.593-2.28-.986-3.743-.379-1.441-1.166-1.82-1.882-1.82-.787 0-1.514.475-1.514.475-2.873.967-5.695 1.304-8.287 1.304-5.956 0-10.425-1.805-10.425-1.805-.066-.009-.107-.009-.158-.009-2.193 0-1.447 2.413-1.447 2.413l4.652 17.48L-21.969-2.93C-21.392-.767-20.476 0-18.518 0z" style="fill:#ef4136;fill-opacity:1;fill-rule:nonzero;stroke:none;stroke-width:1.07309" transform="matrix(1.24251 0 0 -1.24251 1021.733 105.115)"/></g><g style="stroke-width:1.07309"><path d="M0 0c-1.166 0-1.815.511-2.147.936-.747.976-.542 2.28-.419 2.806l23.732 89.359c.686 2.649 2.056 3.768 4.535 3.768H44.22c.833 0 2.024-.102 2.745-1.037.736-.957.511-2.266.235-3.314L23.354 2.684C22.71.312 21.059.061 20.404.061c-.925 0-1.681.374-2.008.552-2.414.788-5.042 1.197-7.808 1.197C4.949 1.81.618.112.583.092L.389.015.21.01C.122.01.076 0 0 0" style="fill:#ef4136;fill-opacity:1;fill-rule:nonzero;stroke:none;stroke-width:1.07309" transform="matrix(1.24251 0 0 -1.24251 1110.58 224.06)"/></g><g style="stroke-width:1.07309"><path d="M0 0c-1.217 0-1.851.537-2.183.981-.823 1.151-.394 2.736-.338 2.92l22.737 85.647c.705 2.648 2.065 3.768 4.55 3.768h18.498c.838 0 2.045-.102 2.75-1.038.736-.956.511-2.265.235-3.313l-8.686-32.818c-.026-.031-.046-.056-.046-.072h8.375c1.738 0 2.576-.654 2.995-1.217.507-.654.655-1.544.409-2.469l-3.763-14.131c-.495-1.871-2.275-3.088-4.565-3.088h-8.369c-.297 0-.716-.317-.798-.685 0 0-7.751-29.209-8.431-31.745l-.02-.061C22.7.307 21.054.041 20.379.041c-.879 0-1.656.373-1.973.552-2.428.813-5.062 1.207-7.838 1.207C4.908 1.8.604.102.563.082L.399.015.205 0Z" style="fill:#ef4136;fill-opacity:1;fill-rule:nonzero;stroke:none;stroke-width:1.07309" transform="matrix(1.24251 0 0 -1.24251 544.01 219.645)"/></g><g style="stroke-width:1.07309"><path d="M0 0c-1.201 0-1.846.537-2.183.981-.834 1.151-.388 2.736-.338 2.905l22.742 85.662c.695 2.648 2.055 3.768 4.56 3.768h18.497c.844 0 2.046-.102 2.756-1.038.732-.956.496-2.265.231-3.313l-8.717-32.818c0-.031 0-.056-.021-.072h8.379c1.703 0 2.567-.654 2.987-1.217.51-.654.654-1.544.419-2.469l-3.763-14.131c-.506-1.871-2.301-3.088-4.592-3.088h-8.333c-.327 0-.731-.317-.818-.685L23.359 2.694C22.716.307 21.06.041 20.39.041c-.896 0-1.672.373-1.99.552-2.422.813-5.05 1.207-7.811 1.207C4.934 1.8.619.102.563.082L.389.015.199 0Z" style="fill:#ef4136;fill-opacity:1;fill-rule:nonzero;stroke:none;stroke-width:1.07309" transform="matrix(1.24251 0 0 -1.24251 820.644 219.645)"/></g><g style="stroke-width:1.07309"><path d="M0 0c.455-1.202 2.065-1.851 4.616-1.851 1.744.026 6.443.608 7.107 3.124l6.094 22.992v.061c0 .005-10.716.005-10.716.005-.337 0-.726-.312-.828-.66zm-.399-26.535c-7.72 0-14.003.639-18.666 1.932-10.282 2.833-9.479 8.012-9.438 8.222l.015.056 22.987 86.624c.689 2.622 2.044 3.747 4.524 3.747h16.489c.843 0 2.05-.097 2.755-1.032.731-.956.502-2.276.23-3.308L12.02 45.323v-.087h10.726c.327 0 .721.333.818.67l6.462 24.393c.701 2.622 2.076 3.747 4.551 3.747h15.905c.844 0 2.06-.097 2.756-1.032.741-.956.511-2.276.245-3.329L30.154-18.181c-.761-2.904-4.351-5.01-10.915-6.442C10.665-26.499.061-26.535-.384-26.535z" style="fill:#ef4136;fill-opacity:1;fill-rule:nonzero;stroke:none;stroke-width:1.07309" transform="matrix(1.24251 0 0 -1.24251 493.82 197.271)"/></g><g style="stroke-width:1.07309"><path d="M0 0c.537-1.094 2.147-1.703 4.551-1.703 1.508.006 5.603.496 6.83 2.501L25.44 53.8c.021.031.021.052.021.087H14.95c-.317 0-.726-.347-.808-.68zm-.45-26.386c-7.73 0-14.008.639-18.66 1.932-8.222 2.265-9.377 5.992-9.48 7.49l-.014.199 22.612 85.152c.992 3.778 2.577 5.808 8.007 5.808h45.369c2.751 0 4.305-.466 5.154-1.6.971-1.289.685-3.068.225-4.796l-22.93-86.476-.057-.071-.041-.148-.071-.169c-1.278-2.388-4.714-4.157-10.471-5.409C10.614-26.351 0-26.386-.439-26.386Z" style="fill:#ef4136;fill-opacity:1;fill-rule:nonzero;stroke:none;stroke-width:1.07309" transform="matrix(1.24251 0 0 -1.24251 770.389 197.455)"/></g><g style="stroke-width:1.07309"><path d="M0 0c-1.012.01-2.014.021-3.006.046-8.528.389-10.036 2.986-10.164 4.515-.005.26-.005.332 4.663 18.067.03.026.03.057.03.077h-31.35c-1.013 0-2.291.113-3.006 1.079-.691.925-.491 2.198-.251 3.057l3.492 13.211c.659 2.48 2.071 3.554 4.714 3.554h91.414c1.017 0 2.28-.144 3.016-1.079.706-.941.486-2.204.256-3.063l-3.517-13.211c-.66-2.489-2.071-3.548-4.704-3.548H19.996c-.328 0-.731-.332-.823-.664 0 0-4.551-16.985-4.699-17.46C13.452.649 4.97.031 0 0" style="fill:#ef4136;fill-opacity:1;fill-rule:nonzero;stroke:none;stroke-width:1.07309" transform="matrix(1.24251 0 0 -1.24251 656.374 235.151)"/></g><g style="stroke-width:1.07309"><path d="M0 0c-4.943.107-9.197 1.498-12.705 4.137-.184.148-.388.301-.557.444-3.369 2.72-5.128 5.957-5.854 7.659-.19.45-.394.905-.542 1.37h-.03a.81.81 0 0 1-.614-.332c-.502-.527-1.002-1.079-1.575-1.672a44 44 0 0 0-9.305-7.142 83 83 0 0 0-2.577-1.335C-37.992 1.146-42.297.082-46.602 0h-.05c-2.516 0-4.766.374-6.658 1.146-.332.107-1.39.521-1.994 1.584-.316.542-.608 1.427-.286 2.685.348 1.293 1.503 5.628 2.444 9.187.716 2.669 1.309 4.929 1.391 5.23.234 1.304 1.288 2.807 3.477 2.807.158 0 .306 0 .46-.02a22 22 0 0 0 1.553-.21 11.493 11.493 0 0 1 4.071.015c.69.113 1.344.287 1.983.527.307.123.951.445 1.269.618.474.251.95.553 1.533.956.107.082 1.155.875 1.564 1.248 1.201 1.084 2.372 2.414 3.492 3.978 5.236 7.27 7.72 17.173 7.741 17.26l5.507 20.584c.009.025.009.046.009.081h-13.456c-1.785 0-2.925.379-3.549 1.207-.705.915-.428 1.973-.286 2.459l3.733 14.127c.398 1.431 1.319 3.108 5.041 3.108h13.425c.328 0 .726.312.814.644l2.597 9.806c.706 2.643 2.081 3.763 4.545 3.763h19.081c.92 0 2.065-.107 2.75-1.012.752-.987.486-2.378.235-3.344l-2.607-9.801c0-.02 0-.051-.01-.056h13.118c1.8 0 2.925-.394 3.549-1.227.716-.915.439-1.968.297-2.464l-3.753-14.127c-.368-1.451-1.289-3.083-5.021-3.083H8.293c-.312 0-.731-.332-.814-.675L2.04 46.443C1.999 46.326-.782 36.382.599 29.229c.265-1.39.679-2.586 1.226-3.558a7 7 0 0 1 1.038-1.457 6.5 6.5 0 0 1 1.585-1.217c.046-.02.067-.031.113-.046.976-.481 2.111-.716 3.451-.716.659 0 1.38.051 2.136.174h.037c.281.041.546.071.812.108.338.05.695.081.997.102.19.02.327.02.466.02 1.334 0 1.978-.562 2.28-1.043.623-.961.291-2.101.128-2.474L11.09 4.832c-.747-2.73-3.385-3.579-3.865-3.686C4.944.374 2.531 0 .036 0Z" style="fill:#ef4136;fill-opacity:1;fill-rule:nonzero;stroke:none;stroke-width:1.07309" transform="matrix(1.24251 0 0 -1.24251 1084.54 228.596)"/></g><g style="stroke-width:1.07309"><path d="M0 0h-1.094c-.44.021-1.268.041-2.444.082-2.229.056-5.726.204-9.678.522a80 80 0 0 0-3.702.378l-.097-.077-.439.056c-13.938 1.36-22.199 3.804-24.582 7.266-.757 1.109-.972 2.351-.639 3.609l6.273 23.636c.674 2.638 2.046 3.768 4.52 3.768h19.193c.848 0 2.055-.097 2.751-1.033.736-.961.521-2.296.234-3.328l-2.75-10.374-.133-.189c-.052-.062-.133-.23-.102-.317.01-.103.398-.517 1.768-.788.686-.127 2.721-.546 5.711-.894a69 69 0 0 1 6.795-.537 73 73 0 0 1 3.65-.072 90.888 90.888 0 0 1 15.379 1.289c7.772 1.339 15.196 3.707 22.067 7.014.281.164 1.431.752 2.454.752.905 0 1.386-.471 1.59-.736.444-.563.521-1.345.251-2.367l-4.618-17.353c-.117-.675-.802-2.142-4.371-3.578C29.076 2.725 17.746.471 4.351.082A138 138 0 0 0 0 0" style="fill:#ef4136;fill-opacity:1;fill-rule:nonzero;stroke:none;stroke-width:1.07309" transform="matrix(1.24251 0 0 -1.24251 1223.248 239.802)"/></g><g style="stroke-width:1.07309"><path d="M0 0c-2.051 0-3.604.404-4.72 1.258-1.871 1.416-2.351 3.927-1.416 7.444L9.836 68.903c.706 2.649 2.071 3.768 4.546 3.768h19.08c.91 0 2.056-.102 2.73-1.002.751-.997.506-2.387.255-3.349L20.466 8.104c-.133-.424-1.365-4.172-9.521-6.181l-.879-.21c-.915-.215-1.835-.44-2.76-.665C5.148.568 2.387 0 0 0" style="fill:#ef4136;fill-opacity:1;fill-rule:nonzero;stroke:none;stroke-width:1.07309" transform="matrix(1.24251 0 0 -1.24251 1262.158 193.994)"/></g><g style="stroke-width:1.07309"><path d="m0 0 20.655-3.18L5.599-17.782l3.405-20.814-18.432 9.904-18.549-9.674 3.682 20.773-14.893 14.786 20.68 2.909 9.387 18.845z" style="fill:#ef4136;fill-opacity:1;fill-rule:nonzero;stroke:none;stroke-width:1.07309" transform="matrix(1.24251 0 0 -1.24251 841.944 39.048)"/></g><g style="stroke-width:1.07309"><path d="m0 0 20.654-3.18L5.603-17.782l3.395-20.814-18.436 9.904-18.518-9.674 3.655 20.773-14.893 14.786L-18.498.102l9.372 18.845z" style="fill:#ef4136;fill-opacity:1;fill-rule:nonzero;stroke:none;stroke-width:1.07309" transform="matrix(1.24251 0 0 -1.24251 948.515 39.048)"/></g><g style="stroke-width:1.07309"><path d="m0 0 20.665-3.18L5.604-17.782l3.424-20.814-18.446 9.904-18.538-9.674 3.66 20.773-14.877 14.786L-18.487.102l9.361 18.845z" style="fill:#ef4136;fill-opacity:1;fill-rule:nonzero;stroke:none;stroke-width:1.07309" transform="matrix(1.24251 0 0 -1.24251 1055.084 39.048)"/></g><g style="stroke-width:1.07309"><path d="m0 0 20.676-3.18L5.604-17.782l3.425-20.814-18.436 9.904-18.538-9.674 3.66 20.773-14.872 14.786 20.68 2.909 9.367 18.845z" style="fill:#ef4136;fill-opacity:1;fill-rule:nonzero;stroke:none;stroke-width:1.07309" transform="matrix(1.24251 0 0 -1.24251 1161.654 39.048)"/></g><g style="stroke-width:1.07309"><path d="m0 0 20.676-3.18L5.608-17.782l3.411-20.814-18.426 9.904-18.549-9.674 3.65 20.773-14.857 14.786L-18.487.102l9.356 18.845z" style="fill:#ef4136;fill-opacity:1;fill-rule:nonzero;stroke:none;stroke-width:1.07309" transform="matrix(1.24251 0 0 -1.24251 1268.238 39.048)"/></g></g></svg>