<svg xmlns="http://www.w3.org/2000/svg" xml:space="preserve" width="87.478531" height="77.44915" viewBox="0 0 87.478532 77.44915"><defs><clipPath id="a" clipPathUnits="userSpaceOnUse"><path d="M0 642h595.28V0H0Z"/></clipPath></defs><g clip-path="url(#a)" transform="matrix(1.33333 0 0 -1.33333 -298.939 471.274)"><path d="M0 0h.06v10.282h-10.283C-10.223 4.623-5.652.033 0 0" style="fill:#f7931d;fill-opacity:1;fill-rule:nonzero;stroke:none" transform="translate(253.685 329.341)"/><path d="M0 0a5.058 5.058 0 1 1-10.116 0Z" style="fill:#f7931d;fill-opacity:1;fill-rule:nonzero;stroke:none" transform="translate(274.17 339.624)"/><path d="m0 0 .002 2.691-3.277-1.346Zm1.701 5.185v.007l6.368.003v3.55c-3.255 0-6.181-1.631-6.676-3.55V2.25a1.269 1.269 0 1 0 0-.943v-6.394h10.282c0 5.577-4.439 10.109-9.974 10.272m-3.153-6.638c0-.804.651-1.454 1.452-1.454V0c-.801 0-1.452-.65-1.452-1.453m28.494 5.497a9.093 9.093 0 0 0 5.059-1.528v1.352a10.265 10.265 0 0 1-5.059 1.33c-5.684 0-10.29-4.602-10.29-10.285h1.157a9.13 9.13 0 0 0 9.133 9.131m0-2.601a6.46 6.46 0 0 0 5.059-2.424V.691A7.679 7.679 0 0 1 19.36-5.087h1.172a6.53 6.53 0 0 0 6.51 6.53M11.675-10.151c2.794.001 5.077 2.265 5.077 5.064h-5.077zm0-3.767v-1.451c.432 0 .858.03 1.277.082v-4.781h1.556v5.095c4.317 1.233 7.477 5.202 7.477 9.886h-1.453c-.01-4.866-3.965-8.823-8.857-8.831m0 2.629v-1.45c4.245 0 7.685 3.436 7.685 7.652h-1.451c-.008-3.411-2.791-6.196-6.234-6.202m-1.555-8.779h1.555v3.912c-.528 0-1.048.039-1.555.111z" style="fill:#e31f26;fill-opacity:1;fill-rule:nonzero;stroke:none" transform="translate(242.07 344.71)"/><g style="stroke-width:1.4375"><path d="m0 0 .001.002c-.124-.74-.162-1.58-.103-2.525.221-3.799 3.803-5.264 6.45-4.858 1.136.177 2.225 1.427 2.035 4.781 0 0-.62-.287-1.72-.429.976-3.216-.475-3.418-.8-3.434-2.015-.081-4.34 1.846-4.539 4.967C1.186.758 2.917 3.642 5.678 3.635c.476 0 1.793-.302 1.793-.98 0-.423-.964-.863-1.65-.84 0 0 .046-.907.075-1.032.362.091 3.102.615 3.016 1.998-.058 1.012-1.732 2.158-4.677 1.58a6.609 6.609 0 0 1-1.318-.394L.58 4.458l-.236-.317.666-1.061-1.676.022.043-.574.665-.485-1.739-.424.149-.53Z" style="fill:#f47920;fill-opacity:1;fill-rule:nonzero;stroke:none;stroke-width:1.4375" transform="matrix(.69566 0 0 .69566 238.885 300.553)"/></g><g style="stroke-width:1.4375"><path d="m0 0-1.395-1.222-.048-.496 3.12.217s-.204 3.441-.179 5.127c.005.303.115.951.369 1.164.654.546 2.133 1.747 3.065 1.835.517-.926.305-4.272.133-7.137-.126-.302-.633-.541-.661-.883.684-.035 2.392.066 2.648.066-.111.297-.493.522-.57.882-.054.274.252 7.716-.142 8.09-1.481.31-3.922-.716-4.926-1.698-.012.057.143 4.299.143 4.299H-.959v-.391l.807-1.009a3.58 3.58 0 0 1 .011-.179l-1.064-.737v-.385l1.145-1.04-1.328-.881v-.345l1.368-.923Z" style="fill:#f47920;fill-opacity:1;fill-rule:nonzero;stroke:none;stroke-width:1.4375" transform="matrix(.69566 0 0 .69566 246.655 296.569)"/></g><g style="stroke-width:1.4375"><path d="M0 0c.619 0 .886.464.886 1.028 0 .563-1.124 1.021-1.124 1.021s-.984.084-1.119-1.021C-1.428.467-.619 0 0 0" style="fill:#f47920;fill-opacity:1;fill-rule:nonzero;stroke:none;stroke-width:1.4375" transform="matrix(.69566 0 0 .69566 253.768 302.273)"/></g><g style="stroke-width:1.4375"><path d="m0 0-2.764-.008v-.409l.714-1.253-.959-.786v-.383l1.053-.959c.002-.039.035-3.958.035-4.035l-.955-1.005v-.345s2.707-.106 2.815.024c-.082.167-.349.335-.43.523-.047.103-.069.366-.082.518-.061.8-.031 6.831.04 7.206.078.385.453.591.533.912" style="fill:#f47920;fill-opacity:1;fill-rule:nonzero;stroke:none;stroke-width:1.4375" transform="matrix(.69566 0 0 .69566 254.43 301.788)"/></g><g style="stroke-width:1.4375"><path d="m0 0-.928-.977v-.343l2.93-.038s-.344.555-.531.774c0 0 .065 4.472.052 4.839-.01.364.322 1.064.748 1.379.422.313 1.995 1.015 2.342.918 0 0 .43-4.775.079-6.749-.049-.276-.374-.532-.533-.75-.16-.218-.106-.316-.106-.316l2.659-.095s-.036.212-.265.459c-.228.248-.33.495-.343.966-.01.227.05 1.829.124 3.485l1.319.942-.343.344-.6.321 1.246.774-.193.301-1.053.559 1.083.891-.203.206s-1.633.104-1.69.103c-.55-.014-2.586-.181-4.28-1.116l.068 1.207-2.395-.397v-.495c.26-.009.777-.111.777-.787z" style="fill:#f47920;fill-opacity:1;fill-rule:nonzero;stroke:none;stroke-width:1.4375" transform="matrix(.69566 0 0 .69566 270.696 296.319)"/></g><g style="stroke-width:1.4375"><path d="M0 0c-1.587-.055-3.495-.854-3.495-5.065 0-1.657.762-4.659 3.68-4.131 2.256.408 1.974 2.467 2.033 3.034 0 0-.754-.082-1.303-.098 0-.814-.279-1.721-1.053-1.92-1.621-.403-1.736 2.69-1.736 3.56 0 .12.137 3.713 1.736 3.713 1.406 0 1.176-1.052 1.155-2.175-.022-1.123-.386-1.02-.666-1.02-.489 0-.272.581-.272.581-.212 0-.922.141-.922.141-.158-.543-.738-1.726 1.282-1.726.771.104 1.812.081 1.943 2.567C2.51-.055.511-.005 0 0" style="fill:#f47920;fill-opacity:1;fill-rule:nonzero;stroke:none;stroke-width:1.4375" transform="matrix(.69566 0 0 .69566 267.782 301.809)"/></g><g style="stroke-width:1.4375"><path d="m0 0-1.194-1.059-.05-.518 3.229.04s-.441 3.223-.459 3.916c0 0 .801.509.942.618l2.95-4.716 1.895-.037S4.647 2.488 3.329 3.671c0 0 2.764 1.748 3.766 4.187 0 0-.862-.217-1.503-.254 0 0-1.322-2.131-4.148-3.933 0 0-.08 5.481.022 5.865l.342.61H-.957v-.409l.711-1.025-.956-.782v-.385l1.094-.996.004-.075-1.282-.849v-.347l1.365-.922z" style="fill:#f47920;fill-opacity:1;fill-rule:nonzero;stroke:none;stroke-width:1.4375" transform="matrix(.69566 0 0 .69566 260.562 296.595)"/></g><g style="stroke-width:1.4375"><path d="M0 0c-.084-.263-.137-.416-.512-.512-.263-.066-.8-.14-.916-.05-.291.202-.86 2.522-.994 3.609-.015.12.695 3.123.774 3.291.183.392 1.173.51 1.581.425.087-.018.296-1.628.296-2.096l1.324.31c.023.44.199 2.404-.279 2.598-.589.243-2.801.015-3.739-.354-.655-.256-1.736-3.918-1.736-4.62 0-.923 1.162-3.588 1.665-4.026.197-.148.153-.113.455-.167.481-.03 2.844.644 2.909.667.368.134.62.456.669.84.05.381.173 1.59.173 1.59S.914 1.426.366 1.408A20.605 20.605 0 0 0 0 0" style="fill:#f47920;fill-opacity:1;fill-rule:nonzero;stroke:none;stroke-width:1.4375" transform="matrix(.69566 0 0 .69566 257.8 296.481)"/></g><path d="M0 0c2.303 0 3.938 2.411 3.938 4.558 0 2.626-1.041 4.807-2.944 4.807-1.58 0-2.81-1.897-2.759-3.605l.026-.007 1.223.223c.158 1.195.84 2.096 1.317 2.096 1.239 0 1.669-1.651 1.696-3.353C2.534 2.296 1.359 1.74.689 1.615c-1.811-.34-3.159 1.296-3.159 3.88 0 2.234 1.56 5.083 4.068 4.814 1.717-.184 3.086-2.026 3.303-4.165.181-1.785-.159-3.162-.673-4.195l1.196-.644c.902 1.09 1.189 2.568 1.189 2.568L8.52 5.164v.425l-1.588.65 1.57 1.267v.43l-2.359.349L7.58 9.322v.503l-2.684.774.46.676v.455l-4.401-.214c-3.98-.282-5.242-3.592-5.242-6.339C-4.287 2.598-2.824.005 0 0" style="fill:#9f1d21;fill-opacity:1;fill-rule:nonzero;stroke:none" transform="translate(263.733 311.235)"/><path d="m0 0 .154 1.262.177 1.028s-.058.178-.102.259c-.391-.272-1.127-.683-2.274-.775 0-.483.041-1.831.041-1.831h-5.091L-7.414-2.2H5.893c-.235.626-.728 1.999-.744 2.346C3.786-.018 0 0 0 0" style="fill:#9f1d21;fill-opacity:1;fill-rule:nonzero;stroke:none" transform="translate(266.305 308.795)"/><path d="M0 0c0 .181.313 4.558.313 4.558l3.856-.589-.151 8.066c-3.332.08-4.207-.038-6.546.273 0 0 .171-1.377.257-2.177l3.992.145.451-4.24-4.024-.055-.285-8.916h6.959c-.104.748-.312 2.266-.362 2.724Z" style="fill:#9f1d21;fill-opacity:1;fill-rule:nonzero;stroke:none" transform="translate(275.91 309.53)"/><path d="m0 0-1.758.688L-.236 2.03v.498l-1.537.814 1.22 1.804v.722l-3.778-.549.045-6.062-1.767-.497-.246 3.535.151 2.374h-2.004l-.231-14.97h2.133l.198 7.345 1.8.268.056-7.613h2.598l-.261 5.693 1.217 1.234v.437l-1.167.851L0-.445Z" style="fill:#9f1d21;fill-opacity:1;fill-rule:nonzero;stroke:none" transform="translate(289.813 316.896)"/><path d="m0 0 1.963 1.641v.445l-1.912.688 1.677 1.342v.498l-1.693.814L1.411 6.95v.464l-3.744-.659.046-5.901-1.904-.008.326 5.915h-2.003l-.696-14.976h2.184l.192 7.345 1.933.267.056-7.612H.032z" style="fill:#9f1d21;fill-opacity:1;fill-rule:nonzero;stroke:none" transform="translate(256.077 314.81)"/><path d="M0 0c0 .181.243 4.581.243 4.581l3.729-.253-.149 8.067c-3.333.08-4.209-.039-6.548.272 0 0 .172-1.377.261-2.177l3.991.146.45-4.24-4.026-.055-.28-8.916h6.942c-.095.715-.298 2.255-.35 2.723Z" style="fill:#9f1d21;fill-opacity:1;fill-rule:nonzero;stroke:none" transform="translate(244.233 309.17)"/><path d="m0 0-.023 1.117.243 1.498-2.499-.31.045-2.338h-5.614l-.32-2.165H6.384c-.29.819-.712 2.07-.726 2.388C4.155.009 0 0 0 0" style="fill:#9f1d21;fill-opacity:1;fill-rule:nonzero;stroke:none" transform="translate(234.157 308.793)"/><path d="m0 0 .082 5.059 3.483.182.146-5.226Zm10.257-.434L5.413-.608l.27 6.058 3.942-.143.252 2.126c-2.401-.432-6.392-.291-6.392-.291l.036-.347h-7.79l-.012-.697 1.489-1.384-1.583-1.047v-.406l1.684-.86-1.486-1.151V.703l1.588-.399-1.256-1.409v-.455l7.608.05s.024-.538.03-.795c3.353-.082 4.405-.114 6.759-.425 0 0-.205 1.492-.295 2.296" style="fill:#9f1d21;fill-opacity:1;fill-rule:nonzero;stroke:none" transform="translate(228.58 314.77)"/></g></svg>